<?xml version="1.0" encoding="utf-8"?>
<!-- Generator: Adobe Illustrator 27.2.0, SVG Export Plug-In . SVG Version: 6.00 Build 0)  -->
<svg version="1.1" id="Layer_1" xmlns="http://www.w3.org/2000/svg" xmlns:xlink="http://www.w3.org/1999/xlink" x="0px" y="0px"
	 viewBox="0 0 196.5 120.3" style="enable-background:new 0 0 196.5 120.3;" xml:space="preserve">
<style type="text/css">
	.st0{fill:#FFFFFF;}
	.st1{fill:#262262;}
	.st2{fill:#70C8B9;}
</style>
<g>
	<path class="st0" d="M6.4,50.7C6.4,50.4,6.7,50,7,50h23.3c0.4,0,0.7,0.3,0.6,0.6l-0.8,7.7c0,0.3-0.4,0.6-0.7,0.6h-6.3v20.3
		c0,0.3-0.3,0.6-0.6,0.6h-7.7c-0.3,0-0.6-0.3-0.6-0.6V59H7c-0.3,0-0.6-0.3-0.6-0.6V50.7z"/>
	<path class="st0" d="M33.3,56.7c0-0.3,0.3-0.6,0.6-0.6h4.9c0.3,0,0.5,0.2,0.7,0.6l0.5,1.4c1.3-1.8,3.4-2.8,6.1-2.8
		c0.6,0,1.3,0.1,1.8,0.2c0.2,0,0.6,0.1,1,0.2l1.1,0.2c0.3,0,0.4,0.2,0.4,0.4c0,0.1,0,0.1,0,0.2l-1.6,7C48.7,64,48.4,64.1,48,64
		c-0.8-0.3-1.7-0.4-2.8-0.4c-1.4,0-2.2,0.7-2.6,1.3c-0.3,0.4-0.4,0.6-0.4,0.7v13.7c0,0.3-0.3,0.7-0.7,0.7H34c-0.3,0-0.6-0.3-0.6-0.7
		V56.7z"/>
	<path class="st0" d="M58.3,65.1c2.3,0,4.1,0.5,5.6,1.4v-1c0-1.2-1-1.9-1.9-1.9c-1.6,0-3.7,0.3-6.3,0.8c-0.4,0.1-0.6-0.1-0.7-0.5
		l-1.6-6.4c-0.1-0.4,0.1-0.6,0.5-0.7c2.9-0.9,5.8-1.3,8.7-1.3c4.1,0,6.6,0.8,8.2,2.9c1.6,2.1,2.2,5,2.2,9.6v11.2
		c0,0.3-0.3,0.7-0.7,0.7h-5.4c-0.3,0-0.7-0.3-0.7-0.7l0-0.6c-1,0.7-2.1,1.1-3.2,1.5c-1.1,0.3-2.6,0.5-4.5,0.5
		c-2.2,0-4.2-0.7-5.8-2.2c-1.6-1.4-2.4-3.3-2.4-5.7c0-1.6,0.4-3.1,1.2-4.2C52.9,66.1,55.4,65.1,58.3,65.1z M62,73.6
		c0.5,0,0.9-0.1,1.3-0.4c0.4-0.3,0.6-0.5,0.6-0.8v-0.7c0-0.3-0.2-0.6-0.6-0.8c-0.4-0.3-0.8-0.4-1.3-0.4c-1.5,0-2.3,0.5-2.3,1.5
		C59.7,73,60.5,73.6,62,73.6z"/>
	<path class="st0" d="M76.6,56.7c0-0.3,0.3-0.6,0.6-0.6h4.9c0.3,0,0.5,0.2,0.7,0.6l0.3,0.7c1-0.6,2-1.1,3.1-1.5
		c1.1-0.4,2.2-0.5,3-0.5c3.4,0,6,1.1,7.6,2.8c1.6,1.8,2.4,4,2.4,6.7v14.3c0,0.3-0.3,0.7-0.7,0.7h-7.6c-0.3,0-0.6-0.3-0.6-0.7V66.3
		c0-1.8-0.8-2.7-2.1-2.7c-1,0-2.1,0.6-2.5,1L85.5,65v14.3c0,0.3-0.3,0.7-0.7,0.7h-7.6c-0.3,0-0.6-0.3-0.6-0.7V56.7z"/>
	<path class="st0" d="M104.8,57.8c1.8-1.5,4.1-2.3,7.1-2.3c2.4,0,5.2,0.6,8.6,1.7c0.3,0.1,0.4,0.4,0.3,0.7l-2.2,5.7
		c-0.1,0.3-0.3,0.4-0.6,0.3c-2.4-1-4.3-1.4-5.7-1.4c-1,0-1.5,0.3-1.5,0.9c0,0.6,1.9,0.8,4.1,1.4c1.5,0.4,3,1.1,4.3,2.2
		c1.2,1,2.1,2.9,2.1,5.3c0,2.4-0.9,4.5-2.7,6c-1.8,1.5-4.1,2.3-7,2.3c-2.5,0-5.4-0.6-8.6-1.7c-0.3-0.1-0.4-0.4-0.3-0.6l2.2-5.7
		c0.1-0.3,0.3-0.4,0.6-0.3l1.1,0.4c0.7,0.3,1.2,0.4,1.6,0.5c0.3,0.1,0.8,0.2,1.4,0.3c0.6,0.1,1.2,0.2,1.6,0.2c1,0,1.5-0.3,1.5-1
		c0-0.6-1.9-0.8-4.1-1.4c-1.5-0.4-3.1-1.1-4.3-2.2c-1.2-1.1-2.1-2.9-2.1-5.3C102.2,61.4,103.1,59.4,104.8,57.8z"/>
	<path class="st0" d="M121.8,56.8c0-0.4,0.3-0.6,0.6-0.6h2.3c0-5,2.6-7.6,7.1-7.6h4.7c0.4,0,0.6,0.2,0.6,0.6v4.2
		c0,0.4-0.2,0.6-0.6,0.6c-1.9,0-2.8,0.7-2.8,2.2h3c0.4,0,0.7,0.3,0.7,0.6l-0.5,4.2c-0.1,0.3-0.3,0.7-0.7,0.7h-2.5v17.6
		c0,0.4-0.2,0.6-0.6,0.6h-7.7c-0.4,0-0.6-0.2-0.6-0.6V61.6h-2.3c-0.3,0-0.6-0.3-0.6-0.6V56.8z"/>
	<path class="st0" d="M138.8,68c0-2.3,0.5-4.4,1.6-6.3c1.1-1.9,2.6-3.4,4.6-4.6c2-1.1,4.2-1.7,6.6-1.7c2.5,0,4.7,0.6,6.6,1.7
		c2,1.1,3.5,2.6,4.6,4.5c1.1,1.9,1.6,4,1.6,6.3c0,2.3-0.5,4.4-1.6,6.3c-1.1,1.9-2.6,3.4-4.6,4.5c-2,1.1-4.2,1.7-6.6,1.7
		c-2.4,0-4.7-0.5-6.6-1.7c-2-1.1-3.5-2.6-4.6-4.5C139.4,72.4,138.8,70.3,138.8,68z M149,71c0.7,0.8,1.6,1.3,2.7,1.3
		c1.1,0,2-0.4,2.7-1.3c0.7-0.9,1.1-1.9,1.1-3.1c0-1.2-0.4-2.2-1.1-3c-0.7-0.9-1.6-1.3-2.7-1.3c-1.1,0-2,0.4-2.7,1.3
		c-0.7,0.8-1.1,1.9-1.1,3C147.9,69.2,148.3,70.1,149,71z"/>
	<path class="st0" d="M167.6,56.7c0-0.3,0.3-0.6,0.6-0.6h4.9c0.3,0,0.5,0.2,0.7,0.6l0.5,1.4c1.3-1.8,3.4-2.8,6.1-2.8
		c0.6,0,1.3,0.1,1.8,0.2c0.2,0,0.6,0.1,1,0.2l1.1,0.2c0.3,0,0.4,0.2,0.4,0.4c0,0.1,0,0.1,0,0.2l-1.6,7c-0.1,0.4-0.4,0.5-0.8,0.3
		c-0.8-0.3-1.7-0.4-2.8-0.4c-1.4,0-2.2,0.7-2.6,1.3c-0.3,0.4-0.4,0.6-0.4,0.7v13.7c0,0.3-0.3,0.7-0.7,0.7h-7.6
		c-0.3,0-0.6-0.3-0.6-0.7V56.7z"/>
</g>
<g>
	<rect x="6.4" y="42.3" class="st0" width="42.8" height="0.9"/>
</g>
<g>
	<path class="st1" d="M192.8,15.7C192.9,15.7,192.8,15.7,192.8,15.7L192.8,15.7z"/>
	<path class="st1" d="M192.8,15.7C192.9,15.7,192.9,15.7,192.8,15.7L192.8,15.7z"/>
	<g>
		<path class="st1" d="M192.8,15.7C192.9,15.7,192.9,15.7,192.8,15.7L192.8,15.7z"/>
		<path class="st1" d="M192.8,15.7C192.9,15.7,192.8,15.7,192.8,15.7L192.8,15.7z"/>
		<g>
			<path class="st1" d="M192.8,15.7C192.9,15.7,192.9,15.7,192.8,15.7L192.8,15.7z"/>
			<path class="st1" d="M192.8,15.7C192.9,15.7,192.8,15.7,192.8,15.7L192.8,15.7z"/>
		</g>
	</g>
</g>
<path class="st0" d="M195.3,14.2c-3.2-0.6-6-0.6-9-0.5c-9.2-0.4-19.4,7.7-19.3,8.4c-0.8,0.4-1.3,1.3-1.9,2c-6.6,7.6,2.3-7-1.6-10.6
	c-0.9-2.7-3.3-5.1-5.8-6.2c-14.6-7.6-26.9,11-14.3,21.6c-0.1,0.8-1.3,0.5-1.7,0.1c-0.7-0.9-2.5-0.5-3.4-1.8c-3.7-2-5.6-6-9.1-8.5
	c-3.1-2-8.1-0.9-10.7,2.1c-2,1.2-5,1.9-6.5,3.4c-0.8-2.9,0-6.7-1.2-9.8c-0.3-3.8-4.1-8.3-8.2-8.5c-1.6,0.2-2.8-0.8-4.3-0.9
	c-5-1.8-10.1,1.6-9,6.9c-2.7,2.2-3,7.5-2,10.7c0.4,0.8,1,1.5,0.8,2.2c0,0,0,0,0,0c-0.5,2.5-7.1-4.4-8.2-5.3
	c-1.2-1.2-1.8-2.1-2.9-3.7c3.4-2.3,3.7-9.6-0.1-11.3c-4.1-1.9-7.4,3-5.3,6.6c2.6,4.3,2,5.3-3.3,5.1c-0.3,0-0.5,0-0.8,0
	c-2.4-1.3-6.9,0.1-8.2-2.1c-1.4-2.2-3-4-5.2-5.6C53.4,8,46.5,2.7,39.5,4.6C30.9,6.8,28,17.2,34.2,23.4c3.9,4.3-7.4-4.3-8.9-3.9
	C23.7,18,21,18.3,18.9,17c-1.7-0.7-4.5-0.6-6.6-1.3C8.7,16,3.4,14.9,0.8,16.9c-1.4,0.9,1.4,3.2,2.2,1.8c3.9-0.7,7.8-0.5,11.7,0.1
	c0.1,0,0.2,0,0.3,0c3.9,0.4,7.8,1.9,11.1,3.5c0.3,0.1,0.7,0.3,1,0.5c4.4,2.2,7.5,4.6,7.5,4.6l0,0c4,2.1,8.3,3.5,13,2.4
	c1,0.2,1.2-0.9,2.2-0.6c1.1-0.8,2.2-1.4,2.9-2.4c3.5-0.8,7.3-3.5,7-7.6c-0.4-3.9,6.1-0.5,7.9-1.2c4,1.3,7-2.2,9.7,1.5
	c3.8,5.2,8.6,7.8,13.3,10.1c1.4,2,3.1,4.3,5.7,4.1c2.3-0.1,5.1,0.6,7-0.4c0.7-0.5,1-1.1,2-0.9c1.6-0.8,2.9-2.5,4.4-4.1
	c3.4-3.9,11.6-7.3,11.6-7.3l0,0c5.5-3.7,8.3,1,13.2,5.8c2.7,2.4,6.2,4.7,9.5,5.1c25.5,4.1,19.7-14.9,42.7-16.3c0.1,0,0.3,0,0.4,0
	c0.5,0,1,0,1.5,0c1.5,0,3,0.1,4.5,0.3C193.6,16.9,197.1,15.5,195.3,14.2z M33.6,12.6C33.4,12.9,33.5,12.8,33.6,12.6
	c0-0.1,0.1-0.2,0.2-0.3c0.4-0.6,0.5-1.6,0.9-0.5C34.3,11.6,33.8,12.2,33.6,12.6z M50.7,9.8c0,0.1,0,0.2-0.1,0.1
	C50.6,9.8,50.6,9.8,50.7,9.8z M44.6,5c-0.1,0.1-0.1,0.1-0.2,0C44.5,5,44.7,5,44.6,5z M40.3,9.5c0.6,0.3-1.4,2.3-1.7,1.1L40.3,9.5z
	 M38.6,18.5c0-0.1,0-0.3,0-0.4C38.6,18.3,38.6,18.4,38.6,18.5z M37.8,20.5c1.5,1.3,0.4,1-1,0.6C34.1,19.4,35.8,19.3,37.8,20.5z
	 M37.9,24.1c0,0,4.6-2.2,8.1,2.1C46,26.2,42.1,28.1,37.9,24.1z M47,22.8C47,22.8,47.1,22.8,47,22.8C47,22.8,47,22.8,47,22.8z
	 M47.4,24.3C47.4,24.3,47.4,24.3,47.4,24.3C47.4,24.3,47.4,24.3,47.4,24.3z M45.1,14.2c1.1,1.1,3.7-0.2,3.4,1.7
	c-0.1,0.3-0.4,0.2-0.6,0.2C47.3,15.6,43.1,14.1,45.1,14.2z M49.1,24.9c0-0.1-0.1-0.1,0-0.1C49.1,24.8,49.1,24.8,49.1,24.9z
	 M48.1,24.1c0.4-0.8,1.7-1.2,2.3-1.9C51.5,22.1,49.1,24.8,48.1,24.1z M50.4,12.4c0,0,0,0.1,0,0.1C50.4,12.5,50.3,12.5,50.4,12.4z
	 M46.5,9.3c1.6-0.6,2.6,1,4,1.8C51.8,12.4,47,9.7,46.5,9.3z M51.1,7.1C51.1,7.2,51.1,7.2,51.1,7.1C51.1,7.2,51.1,7.2,51.1,7.1z
	 M55.3,12.8c0.6-0.1,1.8,2.7,0.5,2.2C55.7,14.2,53.8,11.2,55.3,12.8z M56.5,21.4c-2,3.6,0-2.2,0.2-3.7C57.9,17.2,57.2,21,56.5,21.4z
	 M74.2,15.7C74.2,15.7,74.2,15.7,74.2,15.7C74.2,15.7,74.2,15.7,74.2,15.7z M75.3,13c-0.7-1.8-2.4-3.7-1.8-5.7
	C77.7,2.7,78.2,14.6,75.3,13z M93.1,8C93.1,8,93.1,8,93.1,8C93.1,8,93.1,8,93.1,8z M91.9,26.9c-0.9-2.3-1-5.2-0.8-8.1
	c1.3,0.7,1.7,2.5,2.9,3.8c1.6,1.7,4.3,3.1,6.4,3.4c-0.6,0.1,2.4-0.3,1.9,0.4C99.4,27.8,95.3,27.9,91.9,26.9z M101.2,14
	c0.6,0.8,2,0.5,2.6,1.6c1.7,2.1,3.3,4.1,1.2,6.9c-2.6,1-4.8,2.1-7.6,0.2c-1-1.2-2.2-2.3-2.9-3.7c-0.4-0.6-0.7-1.1-0.9-1.6
	c0,0,0,0,0,0C90.7,13,98.3,12.9,101.2,14z M93.5,12.3c0.1,0.1,0.2,0,0.1,0.1C93.6,12.3,93.6,12.3,93.5,12.3z M108.7,25.2
	c-2,4.6-6.7,6-11.1,5C103.1,30.3,110.2,22.6,108.7,25.2z M108.9,17.7c0,0.5-0.2,0.9-0.4,1.4c-1.3-2.7-3-6.5-6.4-6.8c0,0,0,0,0,0
	c-1.9-1.6-5-1.1-7.3-0.9c-0.8-0.2-2.5,1.9-3.1,1c0,0,0.1-0.1,0.1-0.1l0,0c0,0,3.3-8.3,11.3-3.2C109.1,12.7,109.2,16.2,108.9,17.7z
	 M110.7,15.7C110.6,15.7,110.6,15.7,110.7,15.7C110.6,15.7,110.7,15.7,110.7,15.7z M142,31.2C142,31,142,31,142,31.2
	C142,31.2,142,31.2,142,31.2z M162.2,13.8C162.2,13.8,162.2,13.8,162.2,13.8C162.2,13.8,162.2,13.8,162.2,13.8z M162.2,11.9
	C162.2,11.9,162.2,11.9,162.2,11.9C162.2,11.9,162.2,11.9,162.2,11.9C162.2,11.9,162.2,11.8,162.2,11.9z M162.2,15.1
	C162.2,15.1,162.2,15.1,162.2,15.1C162.2,15.1,162.2,15.1,162.2,15.1z M148.5,6.3C148.5,6.3,148.5,6.3,148.5,6.3
	C148.4,6.3,148.5,6.3,148.5,6.3z M157,28.2C157,28.2,157,28.2,157,28.2C157,28.2,157,28.2,157,28.2z M162,21.3
	C162.1,21.3,162.1,21.3,162,21.3C162.2,21.3,162.1,21.3,162,21.3z M162,20.2C162,20.3,162,20.3,162,20.2c-0.1,0.9-0.3,1.7-0.6,2.4
	c-0.2,1-0.9,1.7-1.3,2.5c-0.1,0.2-0.2,0.3-0.4,0.4c-1.3,1.8-2.8,2.5-3.8,2.8c-0.3,0.2-0.6,0.4-1,0.6c-10.5,4.8-19.6-11.8-10.5-18.9
	c4.1-3.5,9.7-2.4,13.9,0.2C159.3,10.8,163.5,13.1,162,20.2z M162.6,26.7C162.6,26.7,162.6,26.7,162.6,26.7
	C162.6,26.7,162.6,26.7,162.6,26.7z M192.8,15.7C192.8,15.7,192.9,15.7,192.8,15.7C192.9,15.7,192.9,15.7,192.8,15.7z"/>
<g>
	<path class="st2" d="M8.3,81.8c0-0.4,0.3-0.7,0.6-0.7h7.6c0.6,0,1.3,0.4,1.5,0.9l8,17.2l8-17.2c0.3-0.5,0.9-0.9,1.5-0.9h7.6
		c0.4,0,0.6,0.3,0.6,0.7v29.8c0,0.3-0.3,0.6-0.6,0.6h-8.3c-0.4,0-0.7-0.3-0.7-0.6v-9.9l-4.5,9.9c-0.2,0.4-0.7,0.7-1.1,0.7h-5
		c-0.4,0-0.9-0.3-1.1-0.7l-4.6-9.9v9.9c0,0.3-0.3,0.6-0.7,0.6H8.9c-0.4,0-0.6-0.3-0.6-0.6V81.8z"/>
	<path class="st2" d="M47.9,93.2c1.1-2,2.7-3.6,4.7-4.8c2-1.2,4.3-1.8,6.8-1.8s4.7,0.6,6.6,1.8c3.9,2.4,5.9,6.5,5.9,11.3
		c0,0.7-0.1,1.4-0.2,2c0,0.4-0.3,0.5-0.7,0.5H55.9c0,0.2,0,0.3,0.2,0.9c0.2,0.3,0.3,0.6,0.6,0.8c0.5,0.4,1.6,0.9,3,0.9
		c1,0,1.9-0.1,2.8-0.2c0.9-0.1,1.7-0.2,2.2-0.4l2.6-0.6c0.3-0.1,0.5,0,0.7,0.4l2.2,6.2c0.1,0.3,0,0.5-0.3,0.7
		c-3.9,1.3-7.4,1.9-10.2,1.9c-2.4,0-4.6-0.6-6.7-1.7s-3.7-2.7-4.8-4.7c-1.2-2-1.8-4.2-1.8-6.6C46.3,97.4,46.8,95.2,47.9,93.2z
		 M62.6,97.7c0-0.7-0.3-1.3-1-1.8c-0.6-0.5-1.4-0.7-2.3-0.7c-0.9,0-1.7,0.2-2.4,0.7c-0.7,0.5-1,1.1-1,1.8H62.6z"/>
	<path class="st2" d="M74.7,88.1c0-0.3,0.3-0.6,0.7-0.6h5.1c0.3,0,0.5,0.2,0.7,0.7l0.4,0.7c1-0.6,2.1-1.1,3.3-1.5s2.2-0.6,3.2-0.6
		c3.5,0,6.3,1.1,7.9,2.9s2.5,4.2,2.5,6.9v14.9c0,0.4-0.3,0.7-0.7,0.7h-7.9c-0.4,0-0.7-0.3-0.6-0.7V98c0-1.9-0.8-2.8-2.2-2.8
		c-1.1,0-2.2,0.6-2.6,1.1L84,96.6v14.9c0,0.4-0.3,0.7-0.7,0.7h-7.9c-0.4,0-0.7-0.3-0.7-0.7V88.1z"/>
	<path class="st2" d="M99,88.1c0-0.4,0.3-0.7,0.6-0.7h2.6v-5c0-0.3,0.3-0.6,0.7-0.6l7.9-0.8h0c0.2,0,0.3,0.1,0.4,0.2
		c0.2,0.2,0.2,0.3,0.2,0.4v5.7h3c0.4,0,0.7,0.3,0.7,0.6l-0.5,4.4c-0.1,0.4-0.3,0.7-0.7,0.7h-2.4v18.4c0,0.4-0.3,0.7-0.7,0.7h-7.9
		c-0.4,0-0.7-0.3-0.7-0.7V93.1h-2.6c-0.3,0-0.6-0.3-0.6-0.6V88.1z"/>
	<path class="st2" d="M116.6,93.2c1.1-2,2.7-3.6,4.7-4.8c2-1.2,4.3-1.8,6.8-1.8s4.7,0.6,6.6,1.8c3.9,2.4,5.9,6.5,5.9,11.3
		c0,0.7-0.1,1.4-0.2,2c0,0.4-0.3,0.5-0.7,0.5h-15.1c0,0.2,0,0.3,0.2,0.9c0.2,0.3,0.3,0.6,0.6,0.8c0.5,0.4,1.6,0.9,3,0.9
		c1,0,1.9-0.1,2.8-0.2c0.9-0.1,1.7-0.2,2.2-0.4l2.6-0.6c0.3-0.1,0.5,0,0.7,0.4l2.2,6.2c0.1,0.3,0,0.5-0.3,0.7
		c-3.9,1.3-7.4,1.9-10.2,1.9c-2.4,0-4.6-0.6-6.7-1.7s-3.7-2.7-4.8-4.7c-1.2-2-1.8-4.2-1.8-6.6C115,97.4,115.5,95.2,116.6,93.2z
		 M131.3,97.7c0-0.7-0.3-1.3-1-1.8c-0.6-0.5-1.4-0.7-2.3-0.7c-0.9,0-1.7,0.2-2.4,0.7c-0.7,0.5-1,1.1-1,1.8H131.3z"/>
</g>
</svg>
