<?xml version="1.0" encoding="utf-8"?>
<!-- Generator: Adobe Illustrator 27.2.0, SVG Export Plug-In . SVG Version: 6.00 Build 0)  -->
<svg version="1.1" id="Layer_1" xmlns="http://www.w3.org/2000/svg" xmlns:xlink="http://www.w3.org/1999/xlink" x="0px" y="0px"
	 viewBox="0 0 183.9 32.7" style="enable-background:new 0 0 183.9 32.7;" xml:space="preserve">
<style type="text/css">
	.st0{fill:#9B9999;}
	.st1{fill:#514F4F;stroke:#514F4F;stroke-width:0.5195;stroke-miterlimit:10;}
	.st2{fill:#FFFFFF;}
	.st3{fill:url(#SVGID_1_);}
	.st4{fill:url(#SVGID_00000016779505114140148070000017539388360472503486_);}
	.st5{fill:url(#SVGID_00000134229215590755715140000000077376248756868752_);}
	.st6{fill:url(#SVGID_00000060002986969238829740000000403239744115044996_);}
	.st7{fill:url(#SVGID_00000034796343841430967370000001420472001714387113_);}
	.st8{fill:url(#SVGID_00000106862821083734856650000006108482583219389853_);}
	.st9{fill:url(#SVGID_00000060735596850014364170000015685853038239150211_);}
	.st10{fill:url(#SVGID_00000098901544255362644800000010093996197451537828_);}
	.st11{fill:url(#SVGID_00000000183946352302643380000005198001888511782020_);}
	.st12{fill:url(#SVGID_00000008109224859066869440000002323368972677696903_);}
	.st13{fill:url(#SVGID_00000095326401531183845820000007230637439884187298_);}
	.st14{fill:url(#SVGID_00000015353856922266876590000005865201694727668643_);}
	.st15{fill:url(#SVGID_00000131325833237281602170000008786288150902319752_);}
	.st16{fill:url(#SVGID_00000042707556803601198050000012426996179212839298_);}
	.st17{fill:none;}
	.st18{fill:url(#SVGID_00000029016167284845447930000012856628632721576086_);}
	.st19{fill:url(#SVGID_00000168826757515430379350000015766077626679678089_);}
	.st20{fill:url(#SVGID_00000166642694130273965460000014007575887816167614_);}
	.st21{fill:url(#SVGID_00000142893199916648749370000007961151007055031174_);}
	.st22{fill:url(#SVGID_00000112615757817271975440000006909349937733374863_);}
	.st23{fill:url(#SVGID_00000084512428814216324820000005776902344884840336_);}
	.st24{fill:url(#SVGID_00000124132901233101702210000003949383860780023487_);}
	.st25{fill:url(#SVGID_00000013878665567683210730000005991589063351717018_);}
	.st26{fill:url(#SVGID_00000067229530141974533560000000263134446642821020_);}
	.st27{fill:url(#SVGID_00000163040438476796006930000006923107712589325708_);}
	.st28{fill:url(#SVGID_00000152227258516415158300000005406231786411840912_);}
	.st29{fill:url(#SVGID_00000119100376297716592870000016089298223353921920_);}
	.st30{fill:url(#SVGID_00000093863912839503845600000008958074822288095891_);}
	.st31{fill:url(#SVGID_00000097501286650743174030000006895158560650819461_);}
	.st32{fill:url(#SVGID_00000114756318775216961800000002433186577191524003_);}
	.st33{fill:url(#SVGID_00000078031063890873556120000017679455675948197290_);}
	.st34{fill:url(#SVGID_00000165952312442640945120000007081625463359252388_);}
</style>
<g>
	<path class="st0" d="M145.9,22.3c2.5,0,4.4,2,4.4,4.3v0.8h-7.2c0,1.7,1.2,3,2.9,3c1.5,0,2.6-1,2.8-2.4h1.5
		c-0.3,2.2-2.2,3.9-4.5,3.9c-2.5,0-4.2-2.1-4.4-4.5C141.2,24.4,143.2,22.3,145.9,22.3z M148.7,25.9c-0.3-1.2-1.5-2-2.8-2
		c-1.3,0-2.4,0.8-2.8,2L148.7,25.9z"/>
	<g>
		<path class="st1" d="M39.9,31.2c-2.5,0.1-4.6-1.9-4.6-4.4l0-2.7h-1.7v-1.5h1.7l0-5.5l1.5,0l0,5.5h2.8v1.5h-2.8l0,2.7
			c0,1.7,1.4,3,3.1,2.9L39.9,31.2z"/>
		<path class="st1" d="M41.2,31.2l0-4.3c0-2.5,2.1-4.7,4.6-4.5v1.5c-1.7-0.1-3.1,1.3-3.1,3l0,4.3H41.2z"/>
		<path class="st1" d="M55.9,26.6l0,4.5l-1.6-0.7c-0.7,0.6-1.7,0.9-2.8,0.9c-2.4,0-4.4-1.9-4.4-4.3c0-2.5,2-4.7,4.4-4.7
			C53.8,22.3,55.9,24.2,55.9,26.6z M48.7,27.1c0,1.6,1.3,2.8,2.9,2.8c1.7,0,2.9-1,2.9-3c0-1.7-1.3-3-2.9-3
			C49.9,23.9,48.7,25.4,48.7,27.1z"/>
		<path class="st1" d="M57.3,31.2l0-4.6c0-2.5,2-4.3,4.4-4.3c2.5,0,4.4,2,4.4,4.3l0,4.6h-1.5l0-4.6c0-1.6-1.3-2.8-2.9-2.8
			c-1.6,0-2.9,1.2-2.9,2.8l0,4.6L57.3,31.2z"/>
		<path class="st1" d="M69.9,31.4c-1.5,0-2.7-1.2-2.6-2.7h1.5c0,0,0,0.1,0,0.2c0,0.6,0.4,1,1,1h3.6c0.6,0,1.1-0.4,1.1-1
			c0-0.7-0.5-1.2-1.1-1.2h-3.6c-1.4,0-2.6-1.4-2.6-2.8c0-1.4,1.2-2.5,2.6-2.5h3.6c1.5,0,2.7,1.2,2.6,2.7h-1.5c0,0,0-0.1,0-0.2
			c0-0.6-0.4-1-1-1l-3.6,0c-0.6,0-1,0.4-1,1c0,0.6,0.5,1.3,1,1.3l3.6,0c1.4,0,2.6,1.3,2.6,2.7c0,1.4-1.2,2.5-2.6,2.5H69.9z"/>
		<path class="st1" d="M78.3,31.2l0-7.1h-0.8v-1.5h0.8v-1.2c0-2.5,2.1-4.5,4.6-4.4v1.5c-1.7-0.1-3.1,1.2-3.1,2.9v1.2h2.8v1.5h-2.8
			l0,7.1H78.3z"/>
		<path class="st1" d="M83.7,26.9c0-2.5,1.9-4.5,4.4-4.5c2.5,0,4.4,2,4.4,4.5c0,2.5-1.9,4.5-4.4,4.5S83.7,29.4,83.7,26.9z
			 M90.9,26.9c0-1.7-1.2-3-2.9-3c-1.7,0-2.9,1.3-2.9,3c0,1.7,1.2,3,2.9,3S90.9,28.6,90.9,26.9z"/>
		<path class="st1" d="M93.5,31.2l0-4.3c0-2.5,2.1-4.7,4.6-4.5v1.5c-1.7-0.1-3.1,1.3-3.1,3l0,4.3H93.5z"/>
		<path class="st0" d="M99.2,31.2l0-4.6c0-2.5,2-4.3,4.4-4.3c1.5,0,2.8,0.7,3.6,1.8c0.8-1.2,2.1-1.8,3.6-1.8c2.5,0,4.4,2,4.4,4.3
			v4.6h-1.5v-4.6c0-1.6-1.3-2.8-2.9-2.8c-1.5,0-2.8,1.1-2.8,2.5l0,4.9h-1.5v-4.9c0-1.4-1.3-2.5-2.9-2.5c-1.6,0-2.9,1.2-2.9,2.8
			l0,4.6H99.2z"/>
		<path class="st0" d="M120.4,22.3c2.5,0,4.4,2,4.4,4.3v0.8l-7.2,0c0,1.7,1.2,3,2.9,3c1.5,0,2.6-1,2.8-2.4h1.5
			c-0.3,2.2-2.2,3.9-4.5,3.9c-2.5,0-4.2-2.1-4.4-4.5C115.7,24.4,117.7,22.3,120.4,22.3z M123.2,25.9c-0.3-1.2-1.5-2-2.8-2
			c-1.3,0-2.4,0.8-2.8,2H123.2z"/>
		<path class="st0" d="M125.6,31.2l0-4.6c0-2.5,2-4.3,4.4-4.3c2.5,0,4.4,2,4.4,4.3l0,4.6h-1.5l0-4.6c0-1.6-1.3-2.8-2.9-2.8
			c-1.6,0-2.9,1.2-2.9,2.8v4.6H125.6z"/>
		<path class="st0" d="M140.7,31.2c-2.5,0.1-4.6-1.9-4.6-4.4v-2.7h-0.8l0-1.5h0.8l0-5.5h1.5l0,5.5h2.8v1.5l-2.8,0v2.7
			c0,1.7,1.4,3,3.1,2.9V31.2z"/>
		<rect x="72.5" y="24.9" class="st2" width="0.8" height="0.6"/>
		<g>
			<linearGradient id="SVGID_1_" gradientUnits="userSpaceOnUse" x1="130.5206" y1="10.8162" x2="130.5394" y2="10.8162">
				<stop  offset="0" style="stop-color:#372D81"/>
				<stop  offset="0.2954" style="stop-color:#E6295E"/>
				<stop  offset="0.6491" style="stop-color:#E9572A"/>
				<stop  offset="0.9963" style="stop-color:#FAB932"/>
			</linearGradient>
			<path class="st3" d="M130.5,10.8C130.5,10.8,130.5,10.8,130.5,10.8C130.5,10.8,130.5,10.8,130.5,10.8z"/>
			
				<linearGradient id="SVGID_00000101812683805306455500000002532674687220319898_" gradientUnits="userSpaceOnUse" x1="118.9713" y1="5.1485" x2="118.9971" y2="5.1485">
				<stop  offset="0" style="stop-color:#372D81"/>
				<stop  offset="0.2954" style="stop-color:#E6295E"/>
				<stop  offset="0.6491" style="stop-color:#E9572A"/>
				<stop  offset="0.9963" style="stop-color:#FAB932"/>
			</linearGradient>
			<path style="fill:url(#SVGID_00000101812683805306455500000002532674687220319898_);" d="M119,5.2C119,5.2,119,5.2,119,5.2
				C119,5.1,119,5.2,119,5.2z"/>
			
				<linearGradient id="SVGID_00000095323508286342843810000004867872843429740461_" gradientUnits="userSpaceOnUse" x1="112.6956" y1="3.9036" x2="112.7385" y2="3.9036">
				<stop  offset="0" style="stop-color:#372D81"/>
				<stop  offset="0.2954" style="stop-color:#E6295E"/>
				<stop  offset="0.6491" style="stop-color:#E9572A"/>
				<stop  offset="0.9963" style="stop-color:#FAB932"/>
			</linearGradient>
			<path style="fill:url(#SVGID_00000095323508286342843810000004867872843429740461_);" d="M112.7,3.9
				C112.7,3.9,112.7,3.9,112.7,3.9C112.8,3.9,112.7,3.9,112.7,3.9z"/>
			
				<linearGradient id="SVGID_00000064344481219190650270000010932068946363265686_" gradientUnits="userSpaceOnUse" x1="105.5757" y1="5.1452" x2="105.5874" y2="5.1452">
				<stop  offset="0" style="stop-color:#372D81"/>
				<stop  offset="0.2954" style="stop-color:#E6295E"/>
				<stop  offset="0.6491" style="stop-color:#E9572A"/>
				<stop  offset="0.9963" style="stop-color:#FAB932"/>
			</linearGradient>
			<path style="fill:url(#SVGID_00000064344481219190650270000010932068946363265686_);" d="M105.6,5.1
				C105.6,5.1,105.6,5.1,105.6,5.1C105.6,5.1,105.6,5.1,105.6,5.1z"/>
			
				<linearGradient id="SVGID_00000066509731324621770560000002082985277485604533_" gradientUnits="userSpaceOnUse" x1="112.5357" y1="2.3003" x2="112.5462" y2="2.3003">
				<stop  offset="0" style="stop-color:#372D81"/>
				<stop  offset="0.2954" style="stop-color:#E6295E"/>
				<stop  offset="0.6491" style="stop-color:#E9572A"/>
				<stop  offset="0.9963" style="stop-color:#FAB932"/>
			</linearGradient>
			<path style="fill:url(#SVGID_00000066509731324621770560000002082985277485604533_);" d="M112.5,2.3
				C112.5,2.3,112.5,2.3,112.5,2.3C112.5,2.3,112.5,2.3,112.5,2.3z"/>
			
				<linearGradient id="SVGID_00000170246599201611958800000012527403821912017076_" gradientUnits="userSpaceOnUse" x1="138.1101" y1="9.1797" x2="138.1181" y2="9.1797">
				<stop  offset="0" style="stop-color:#372D81"/>
				<stop  offset="0.2954" style="stop-color:#E6295E"/>
				<stop  offset="0.6491" style="stop-color:#E9572A"/>
				<stop  offset="0.9963" style="stop-color:#FAB932"/>
			</linearGradient>
			<path style="fill:url(#SVGID_00000170246599201611958800000012527403821912017076_);" d="M138.1,9.2
				C138.1,9.2,138.1,9.2,138.1,9.2C138.1,9.2,138.1,9.2,138.1,9.2z"/>
			
				<linearGradient id="SVGID_00000021802775144427318320000002282980340197334146_" gradientUnits="userSpaceOnUse" x1="137.9611" y1="4.4382" x2="137.9619" y2="4.4382">
				<stop  offset="0" style="stop-color:#372D81"/>
				<stop  offset="0.2954" style="stop-color:#E6295E"/>
				<stop  offset="0.6491" style="stop-color:#E9572A"/>
				<stop  offset="0.9963" style="stop-color:#FAB932"/>
			</linearGradient>
			<path style="fill:url(#SVGID_00000021802775144427318320000002282980340197334146_);" d="M138,4.4C138,4.4,138,4.4,138,4.4
				C138,4.4,138,4.4,138,4.4z"/>
			
				<linearGradient id="SVGID_00000040569466024905833760000016332388084394854031_" gradientUnits="userSpaceOnUse" x1="149.2465" y1="5.1354" x2="149.2483" y2="5.1354">
				<stop  offset="0" style="stop-color:#372D81"/>
				<stop  offset="0.2954" style="stop-color:#E6295E"/>
				<stop  offset="0.6491" style="stop-color:#E9572A"/>
				<stop  offset="0.9963" style="stop-color:#FAB932"/>
			</linearGradient>
			<path style="fill:url(#SVGID_00000040569466024905833760000016332388084394854031_);" d="M149.2,5.1
				C149.3,5.1,149.2,5.1,149.2,5.1L149.2,5.1z"/>
			
				<linearGradient id="SVGID_00000129205066865445303200000001392104370238307245_" gradientUnits="userSpaceOnUse" x1="149.2465" y1="5.1407" x2="149.2506" y2="5.1407">
				<stop  offset="0" style="stop-color:#372D81"/>
				<stop  offset="0.2954" style="stop-color:#E6295E"/>
				<stop  offset="0.6491" style="stop-color:#E9572A"/>
				<stop  offset="0.9963" style="stop-color:#FAB932"/>
			</linearGradient>
			<path style="fill:url(#SVGID_00000129205066865445303200000001392104370238307245_);" d="M149.2,5.1
				C149.3,5.1,149.3,5.1,149.2,5.1L149.2,5.1z"/>
			
				<linearGradient id="SVGID_00000093872926233802317560000015132586645794495394_" gradientUnits="userSpaceOnUse" x1="137.9503" y1="4.9178" x2="137.9565" y2="4.9178">
				<stop  offset="0" style="stop-color:#372D81"/>
				<stop  offset="0.2954" style="stop-color:#E6295E"/>
				<stop  offset="0.6491" style="stop-color:#E9572A"/>
				<stop  offset="0.9963" style="stop-color:#FAB932"/>
			</linearGradient>
			<path style="fill:url(#SVGID_00000093872926233802317560000015132586645794495394_);" d="M138,4.9C138,4.9,138,4.9,138,4.9
				C138,4.9,138,4.9,138,4.9z"/>
			
				<linearGradient id="SVGID_00000021837484939118594120000014569544719277307818_" gradientUnits="userSpaceOnUse" x1="137.9096" y1="7.1982" x2="137.9471" y2="7.1982">
				<stop  offset="0" style="stop-color:#372D81"/>
				<stop  offset="0.2954" style="stop-color:#E6295E"/>
				<stop  offset="0.6491" style="stop-color:#E9572A"/>
				<stop  offset="0.9963" style="stop-color:#FAB932"/>
			</linearGradient>
			<path style="fill:url(#SVGID_00000021837484939118594120000014569544719277307818_);" d="M137.9,7.2C137.9,7.2,138,7.2,137.9,7.2
				C137.9,7.2,137.9,7.2,137.9,7.2z"/>
			
				<linearGradient id="SVGID_00000086670416051521460850000009467563411360693397_" gradientUnits="userSpaceOnUse" x1="137.9522" y1="3.7261" x2="137.9566" y2="3.7261">
				<stop  offset="0" style="stop-color:#372D81"/>
				<stop  offset="0.2954" style="stop-color:#E6295E"/>
				<stop  offset="0.6491" style="stop-color:#E9572A"/>
				<stop  offset="0.9963" style="stop-color:#FAB932"/>
			</linearGradient>
			<path style="fill:url(#SVGID_00000086670416051521460850000009467563411360693397_);" d="M138,3.7C137.9,3.7,138,3.7,138,3.7
				L138,3.7z"/>
			
				<linearGradient id="SVGID_00000121244946971756514580000016850873369453020823_" gradientUnits="userSpaceOnUse" x1="132.9112" y1="1.6834" x2="132.931" y2="1.6834">
				<stop  offset="0" style="stop-color:#372D81"/>
				<stop  offset="0.2954" style="stop-color:#E6295E"/>
				<stop  offset="0.6491" style="stop-color:#E9572A"/>
				<stop  offset="0.9963" style="stop-color:#FAB932"/>
			</linearGradient>
			<path style="fill:url(#SVGID_00000121244946971756514580000016850873369453020823_);" d="M132.9,1.7
				C132.9,1.7,132.9,1.7,132.9,1.7C132.9,1.7,132.9,1.7,132.9,1.7z"/>
			
				<linearGradient id="SVGID_00000048489280298578358650000000020652517775545508_" gradientUnits="userSpaceOnUse" x1="136.056" y1="9.7303" x2="136.0674" y2="9.7303">
				<stop  offset="0" style="stop-color:#372D81"/>
				<stop  offset="0.2954" style="stop-color:#E6295E"/>
				<stop  offset="0.6491" style="stop-color:#E9572A"/>
				<stop  offset="0.9963" style="stop-color:#FAB932"/>
			</linearGradient>
			<path style="fill:url(#SVGID_00000048489280298578358650000000020652517775545508_);" d="M136.1,9.7
				C136.1,9.7,136.1,9.7,136.1,9.7C136.1,9.7,136.1,9.7,136.1,9.7z"/>
			<g>
				<path class="st17" d="M112.7,3.9C112.7,3.9,112.7,3.9,112.7,3.9C112.8,3.9,112.7,3.9,112.7,3.9z"/>
				<path class="st17" d="M116.2,2.7c-3-1.9-4.2,1.2-4.2,1.2l0,0c0,0,0,0,0,0c0.2,0.3,0.8-0.4,1.1-0.4c0.8-0.1,2-0.2,2.7,0.3
					c0,0,0,0,0,0c1.2,0.1,1.9,1.5,2.3,2.5c0.1-0.2,0.1-0.3,0.2-0.5C118.5,5.3,118.4,4,116.2,2.7z"/>
				<path class="st17" d="M138,4.4C138,4.4,138,4.4,138,4.4C138,4.4,138,4.4,138,4.4z"/>
				<path class="st17" d="M115.5,4.5c-1.1-0.4-3.9-0.4-2.8,1.3c0,0,0,0,0,0c0.1,0.2,0.2,0.4,0.3,0.6c0.3,0.5,0.7,0.9,1.1,1.3
					c1,0.7,1.8,0.3,2.8-0.1c0.8-1,0.2-1.8-0.4-2.5C116.3,4.7,115.7,4.8,115.5,4.5z"/>
				<path class="st17" d="M130.5,10.8C130.5,10.8,130.5,10.8,130.5,10.8C130.5,10.8,130.5,10.8,130.5,10.8z"/>
				<path class="st17" d="M119,5.2C119,5.2,119,5.2,119,5.2C119,5.1,119,5.2,119,5.2z"/>
				<path class="st17" d="M112.5,2.3C112.5,2.3,112.5,2.3,112.5,2.3C112.5,2.3,112.5,2.3,112.5,2.3z"/>
				<path class="st17" d="M92.2,8.2c1.5,1.5,3,0.8,3,0.8C93.9,7.4,92.2,8.2,92.2,8.2z"/>
				<path class="st17" d="M105.6,5.1C105.6,5.1,105.6,5.1,105.6,5.1C105.6,5.1,105.6,5.1,105.6,5.1z"/>
				<path class="st17" d="M105.3,2.1c-0.2,0.7,0.4,1.4,0.6,2.1C107.1,4.7,106.9,0.4,105.3,2.1z"/>
				<path class="st17" d="M115.2,8.9c-0.8-0.1-1.8-0.6-2.4-1.3c-0.5-0.5-0.6-1.1-1.1-1.4c-0.1,1.1,0,2.1,0.3,3
					c1.3,0.4,2.8,0.3,3.9-0.2C116.1,8.8,115,9,115.2,8.9z"/>
				<path class="st17" d="M149.2,5.1C149.3,5.1,149.3,5.1,149.2,5.1L149.2,5.1z"/>
				<path class="st17" d="M136.5,3.2c-1.5-1-3.6-1.4-5.1-0.1c-3.3,2.6,0,8.7,3.9,7c0.1-0.1,0.3-0.1,0.4-0.2c0.4-0.1,0.9-0.4,1.4-1
					c0.1,0,0.1-0.1,0.1-0.2c0.1-0.3,0.4-0.6,0.5-0.9c0.1-0.3,0.2-0.6,0.2-0.9c0,0,0,0,0,0C138.5,4.2,136.9,3.3,136.5,3.2z"/>
				<path class="st17" d="M138.1,9.2C138.1,9.2,138.1,9.2,138.1,9.2C138.1,9.2,138.1,9.2,138.1,9.2z"/>
				<path class="st17" d="M149.2,5.1C149.3,5.1,149.2,5.1,149.2,5.1L149.2,5.1z"/>
				<path class="st17" d="M138,3.7C137.9,3.7,138,3.7,138,3.7L138,3.7z"/>
				<path class="st17" d="M138,4.9C138,4.9,138,4.9,138,4.9C138,4.9,138,4.9,138,4.9z"/>
				<path class="st17" d="M132.9,1.7C132.9,1.7,132.9,1.7,132.9,1.7C132.9,1.7,132.9,1.7,132.9,1.7z"/>
				<path class="st17" d="M136.1,9.7C136.1,9.7,136.1,9.7,136.1,9.7C136.1,9.7,136.1,9.7,136.1,9.7z"/>
				<path class="st17" d="M137.9,7.2C137.9,7.2,138,7.2,137.9,7.2C137.9,7.2,137.9,7.2,137.9,7.2z"/>
				
					<linearGradient id="SVGID_00000084496534574177586240000009595648187134947241_" gradientUnits="userSpaceOnUse" x1="87.8868" y1="7.6854" x2="88.2429" y2="7.6854">
					<stop  offset="0" style="stop-color:#372D81"/>
					<stop  offset="0.2954" style="stop-color:#E6295E"/>
					<stop  offset="0.6491" style="stop-color:#E9572A"/>
					<stop  offset="0.9963" style="stop-color:#FAB932"/>
				</linearGradient>
				<path style="fill:url(#SVGID_00000084496534574177586240000009595648187134947241_);" d="M88.2,7.8c-0.1-0.1-0.2-0.1-0.4-0.2
					C88,7.7,88.1,7.7,88.2,7.8z"/>
				
					<linearGradient id="SVGID_00000042730942578862074810000006397847397460868022_" gradientUnits="userSpaceOnUse" x1="95.5698" y1="7.7564" x2="95.5866" y2="7.7564">
					<stop  offset="0" style="stop-color:#372D81"/>
					<stop  offset="0.2954" style="stop-color:#E6295E"/>
					<stop  offset="0.6491" style="stop-color:#E9572A"/>
					<stop  offset="0.9963" style="stop-color:#FAB932"/>
				</linearGradient>
				<path style="fill:url(#SVGID_00000042730942578862074810000006397847397460868022_);" d="M95.6,7.8C95.6,7.8,95.6,7.8,95.6,7.8
					C95.6,7.7,95.6,7.8,95.6,7.8z"/>
				
					<linearGradient id="SVGID_00000116220775163902791620000007561115284285816969_" gradientUnits="userSpaceOnUse" x1="96.3301" y1="8.4946" x2="96.3487" y2="8.4946">
					<stop  offset="0" style="stop-color:#372D81"/>
					<stop  offset="0.2954" style="stop-color:#E6295E"/>
					<stop  offset="0.6491" style="stop-color:#E9572A"/>
					<stop  offset="0.9963" style="stop-color:#FAB932"/>
				</linearGradient>
				<path style="fill:url(#SVGID_00000116220775163902791620000007561115284285816969_);" d="M96.3,8.5C96.3,8.5,96.3,8.5,96.3,8.5
					C96.3,8.5,96.3,8.5,96.3,8.5z"/>
				
					<linearGradient id="SVGID_00000151506374923803209320000006820611619149540760_" gradientUnits="userSpaceOnUse" x1="90.5948" y1="4.0357" x2="90.6415" y2="4.0357">
					<stop  offset="0" style="stop-color:#372D81"/>
					<stop  offset="0.2954" style="stop-color:#E6295E"/>
					<stop  offset="0.6491" style="stop-color:#E9572A"/>
					<stop  offset="0.9963" style="stop-color:#FAB932"/>
				</linearGradient>
				<path style="fill:url(#SVGID_00000151506374923803209320000006820611619149540760_);" d="M90.6,4C90.6,4.1,90.6,4.1,90.6,4
					L90.6,4z"/>
				<g>
					<path class="st17" d="M96.8,4C96.8,4,96.8,4,96.8,4C96.8,4,96.8,4,96.8,4z"/>
					<path class="st17" d="M97.1,2C97.1,2,97.1,2,97.1,2C97.1,2,97.1,2,97.1,2z"/>
					<path class="st17" d="M96.9,3.5c-0.5-0.3-0.9-0.9-1.5-0.7C95.6,2.9,97.3,3.9,96.9,3.5z"/>
					<path class="st17" d="M96.8,7.5c-0.2,0.3-0.7,0.4-0.9,0.7C96.4,8.5,97.2,7.5,96.8,7.5z"/>
					<path class="st17" d="M105.3,2.1c-0.2,0.7,0.4,1.4,0.6,2.1C107.1,4.7,106.9,0.4,105.3,2.1z"/>
					<path class="st17" d="M96.3,8.5C96.3,8.5,96.3,8.5,96.3,8.5C96.3,8.5,96.3,8.5,96.3,8.5z"/>
					<path class="st17" d="M98.6,4.1c-0.6-0.6,0.2,0.5,0.2,0.8C99.3,5.1,98.8,4,98.6,4.1z"/>
					<path class="st17" d="M105.6,5.1C105.6,5.1,105.6,5.1,105.6,5.1C105.6,5.1,105.6,5.1,105.6,5.1z"/>
					<path class="st17" d="M99.2,5.9c-0.1,0.6-0.8,2.7-0.1,1.4C99.3,7.1,99.6,5.7,99.2,5.9z"/>
					<path class="st17" d="M93.1,2.9l-0.6,0.4C92.6,3.7,93.3,3,93.1,2.9z"/>
					<path class="st17" d="M96.9,3C96.9,3,96.9,3,96.9,3C96.9,3,96.9,3,96.9,3z"/>
					<path class="st17" d="M94.7,1.2C94.7,1.2,94.6,1.2,94.7,1.2C94.6,1.2,94.7,1.3,94.7,1.2z"/>
					<path class="st17" d="M90.7,3.9c0,0.1,0,0.1-0.1,0.1c0.1-0.1,0.2-0.4,0.4-0.3C90.9,3.3,90.8,3.7,90.7,3.9z"/>
					<path class="st17" d="M90.6,4C90.6,4.1,90.6,4.1,90.6,4L90.6,4z"/>
					<path class="st17" d="M92.2,8.2c1.5,1.5,3,0.8,3,0.8C93.9,7.4,92.2,8.2,92.2,8.2z"/>
					<path class="st17" d="M96.1,5.2c0.1-0.7-0.9-0.2-1.2-0.6c-0.7,0,0.8,0.5,1,0.7C96,5.3,96.1,5.3,96.1,5.2z"/>
					<path class="st17" d="M92.2,6.9c-0.7-0.4-1.3-0.4-0.4,0.2C92.3,7.3,92.7,7.4,92.2,6.9z"/>
					<path class="st17" d="M92.5,6c0,0,0,0.1,0,0.1C92.5,6.1,92.5,6.1,92.5,6z"/>
					<path class="st17" d="M112.5,2.3C112.5,2.3,112.5,2.3,112.5,2.3C112.5,2.3,112.5,2.3,112.5,2.3z"/>
					<path class="st17" d="M95.6,7.8C95.6,7.8,95.6,7.8,95.6,7.8C95.6,7.7,95.6,7.8,95.6,7.8z"/>
					<path class="st17" d="M137.9,7.2C137.9,7.2,138,7.2,137.9,7.2C137.9,7.2,137.9,7.2,137.9,7.2z"/>
					<path class="st17" d="M136.1,9.7C136.1,9.7,136.1,9.7,136.1,9.7C136.1,9.7,136.1,9.7,136.1,9.7z"/>
					<path class="st17" d="M136.5,3.2c-1.5-1-3.6-1.4-5.1-0.1c-3.3,2.6,0,8.7,3.9,7c0.1-0.1,0.3-0.1,0.4-0.2c0.4-0.1,0.9-0.4,1.4-1
						c0.1,0,0.1-0.1,0.1-0.2c0.1-0.3,0.4-0.6,0.5-0.9c0.1-0.3,0.2-0.6,0.2-0.9c0,0,0,0,0,0C138.5,4.2,136.9,3.3,136.5,3.2z"/>
					<path class="st17" d="M132.9,1.7C132.9,1.7,132.9,1.7,132.9,1.7C132.9,1.7,132.9,1.7,132.9,1.7z"/>
					<path class="st17" d="M149.2,5.1C149.3,5.1,149.3,5.1,149.2,5.1L149.2,5.1z"/>
					<path class="st17" d="M138.1,9.2C138.1,9.2,138.1,9.2,138.1,9.2C138.1,9.2,138.1,9.2,138.1,9.2z"/>
					<path class="st17" d="M115.2,8.9c-0.8-0.1-1.8-0.6-2.4-1.3c-0.5-0.5-0.6-1.1-1.1-1.4c-0.1,1.1,0,2.1,0.3,3
						c1.3,0.4,2.8,0.3,3.9-0.2C116.1,8.8,115,9,115.2,8.9z"/>
					<path class="st17" d="M138,4.9C138,4.9,138,4.9,138,4.9C138,4.9,138,4.9,138,4.9z"/>
					<path class="st17" d="M149.2,5.1C149.3,5.1,149.2,5.1,149.2,5.1L149.2,5.1z"/>
					<path class="st17" d="M116.2,2.7c-3-1.9-4.2,1.2-4.2,1.2l0,0c0,0,0,0,0,0c0.2,0.3,0.8-0.4,1.1-0.4c0.8-0.1,2-0.2,2.7,0.3
						c0,0,0,0,0,0c1.2,0.1,1.9,1.5,2.3,2.5c0.1-0.2,0.1-0.3,0.2-0.5C118.5,5.3,118.4,4,116.2,2.7z"/>
					<path class="st17" d="M112.7,3.9C112.7,3.9,112.7,3.9,112.7,3.9C112.8,3.9,112.7,3.9,112.7,3.9z"/>
					<path class="st17" d="M138,3.7C137.9,3.7,138,3.7,138,3.7L138,3.7z"/>
					<path class="st17" d="M112.7,5.8C112.7,5.8,112.7,5.8,112.7,5.8c0.1,0.2,0.2,0.4,0.3,0.6c0.3,0.5,0.7,0.9,1.1,1.3
						c1,0.7,1.8,0.3,2.8-0.1c0.8-1,0.2-1.8-0.4-2.5c-0.2-0.4-0.8-0.3-1-0.6C114.5,4.1,111.6,4.2,112.7,5.8z"/>
					<path class="st17" d="M130.5,10.8C130.5,10.8,130.5,10.8,130.5,10.8C130.5,10.8,130.5,10.8,130.5,10.8z"/>
					<path class="st17" d="M138,4.4C138,4.4,138,4.4,138,4.4C138,4.4,138,4.4,138,4.4z"/>
					<path class="st17" d="M119,5.2C119,5.2,119,5.2,119,5.2C119,5.1,119,5.2,119,5.2z"/>
					
						<linearGradient id="SVGID_00000039099713850915316850000004308338481824225410_" gradientUnits="userSpaceOnUse" x1="78.4208" y1="6.3206" x2="150.3345" y2="6.3206">
						<stop  offset="0" style="stop-color:#372D81"/>
						<stop  offset="0.2954" style="stop-color:#E6295E"/>
						<stop  offset="0.6491" style="stop-color:#E9572A"/>
						<stop  offset="0.9963" style="stop-color:#FAB932"/>
					</linearGradient>
					<path style="fill:url(#SVGID_00000039099713850915316850000004308338481824225410_);" d="M150.1,4.6c-1.2-0.2-2.2-0.2-3.3-0.2
						c-3.4-0.2-7.1,2.8-7.1,3.1c-0.3,0.2-0.5,0.5-0.7,0.7c-2.4,2.8,0.8-2.6-0.6-3.9c-0.3-1-1.2-1.9-2.1-2.3c-5.4-2.8-9.9,4.1-5.3,8
						c0,0.3-0.5,0.2-0.6,0c-0.3-0.3-0.9-0.2-1.3-0.6c-1.4-0.8-2.1-2.2-3.3-3.1c-1.1-0.7-3-0.3-4,0.8c-0.7,0.4-1.8,0.7-2.4,1.3
						c-0.3-1.1,0-2.5-0.4-3.6c-0.1-1.4-1.5-3-3-3.1c-0.6,0.1-1-0.3-1.6-0.3c-1.8-0.6-3.7,0.6-3.3,2.5c-1,0.8-1.1,2.8-0.8,3.9
						c0.2,0.3,0.4,0.6,0.3,0.8c0,0,0,0,0,0c-0.2,0.9-2.6-1.6-3-2c-0.4-0.4-0.7-0.8-1.1-1.4c1.3-0.8,1.4-3.5,0-4.2
						c-1.5-0.7-2.7,1.1-1.9,2.4c0.9,1.6,0.7,1.9-1.2,1.9c-0.1,0-0.2,0-0.3,0c-0.9-0.5-2.5,0-3-0.8c-0.5-0.8-1.1-1.5-1.9-2
						c-0.2-0.2-2.8-2.1-5.3-1.4c-3.2,0.8-4.2,4.6-1.9,6.9c1.4,1.6-2.7-1.6-3.3-1.4C87,6,86,6.1,85.2,5.6c-0.6-0.3-1.6-0.2-2.4-0.5
						c-1.3,0.1-3.3-0.3-4.2,0.4c-0.5,0.3,0.5,1.2,0.8,0.7c1.4-0.2,2.9-0.2,4.3,0.1c0,0,0.1,0,0.1,0c1.4,0.1,2.9,0.7,4.1,1.3
						c0.1,0,0.2,0.1,0.4,0.2C89.9,8.6,91,9.5,91,9.5l0,0c1.5,0.8,3.1,1.3,4.8,0.9c0.4,0.1,0.4-0.3,0.8-0.2c0.4-0.3,0.8-0.5,1.1-0.9
						c1.3-0.3,2.7-1.3,2.6-2.8c-0.2-1.4,2.2-0.2,2.9-0.5c1.5,0.5,2.6-0.8,3.6,0.6c1.4,1.9,3.1,2.9,4.9,3.7c0.5,0.7,1.1,1.6,2.1,1.5
						c0.8,0,1.9,0.2,2.6-0.1c0.3-0.2,0.4-0.4,0.8-0.3c0.6-0.3,1.1-0.9,1.6-1.5c1.2-1.4,4.3-2.7,4.3-2.7l0,0c2-1.3,3.1,0.4,4.8,2.1
						c1,0.9,2.3,1.7,3.5,1.9c9.4,1.5,7.3-5.5,15.7-6c0.1,0,0.1,0,0.2,0c0.2,0,0.4,0,0.5,0c0.6,0,1.1,0,1.7,0.1
						C149.5,5.6,150.8,5.1,150.1,4.6z M90.6,4C90.6,4.1,90.6,4.1,90.6,4c0,0,0-0.1,0.1-0.1c0.1-0.2,0.2-0.6,0.3-0.2
						C90.9,3.6,90.7,3.9,90.6,4z M96.9,3C96.9,3,96.9,3,96.9,3C96.9,3,96.9,3,96.9,3z M94.7,1.2C94.7,1.3,94.6,1.2,94.7,1.2
						C94.6,1.2,94.7,1.2,94.7,1.2z M93.1,2.9c0.2,0.1-0.5,0.9-0.6,0.4L93.1,2.9z M92.5,6.2c0,0,0-0.1,0-0.1
						C92.5,6.1,92.5,6.1,92.5,6.2z M92.2,6.9c0.5,0.5,0.1,0.4-0.4,0.2C90.8,6.5,91.4,6.5,92.2,6.9z M92.2,8.2c0,0,1.7-0.8,3,0.8
						C95.2,9,93.8,9.7,92.2,8.2z M95.6,7.8C95.6,7.8,95.6,7.7,95.6,7.8C95.6,7.8,95.6,7.8,95.6,7.8z M95.7,8.3
						C95.7,8.3,95.7,8.3,95.7,8.3C95.7,8.3,95.7,8.3,95.7,8.3z M94.9,4.6c0.4,0.4,1.4-0.1,1.2,0.6c0,0.1-0.1,0.1-0.2,0.1
						C95.7,5.1,94.1,4.6,94.9,4.6z M96.3,8.5C96.3,8.5,96.3,8.5,96.3,8.5C96.3,8.5,96.3,8.5,96.3,8.5z M96,8.2
						c0.1-0.3,0.6-0.5,0.9-0.7C97.2,7.5,96.4,8.5,96,8.2z M96.8,3.9C96.8,4,96.8,4,96.8,3.9C96.8,4,96.8,4,96.8,3.9z M95.4,2.8
						c0.6-0.2,1,0.4,1.5,0.7C97.3,3.9,95.6,2.9,95.4,2.8z M97.1,2C97.1,2,97.1,2,97.1,2C97.1,2,97.1,2,97.1,2z M98.6,4.1
						c0.2-0.1,0.7,1,0.2,0.8C98.8,4.6,98.1,3.5,98.6,4.1z M99.1,7.3c-0.7,1.3,0-0.8,0.1-1.4C99.6,5.7,99.3,7.1,99.1,7.3z M105.6,5.1
						C105.6,5.1,105.6,5.1,105.6,5.1C105.6,5.1,105.6,5.1,105.6,5.1z M106,4.1c-0.3-0.7-0.9-1.4-0.6-2.1
						C106.9,0.4,107.1,4.7,106,4.1z M112.5,2.3C112.5,2.3,112.5,2.3,112.5,2.3C112.5,2.3,112.5,2.3,112.5,2.3z M112.1,9.3
						c-0.3-0.8-0.4-1.9-0.3-3c0.5,0.2,0.6,0.9,1.1,1.4c0.6,0.6,1.6,1.1,2.4,1.3c-0.2,0,0.9-0.1,0.7,0.2
						C114.8,9.6,113.4,9.6,112.1,9.3z M115.5,4.5c0.2,0.3,0.8,0.2,1,0.6c0.6,0.8,1.2,1.5,0.4,2.5c-1,0.4-1.8,0.8-2.8,0.1
						c-0.4-0.4-0.8-0.9-1.1-1.3c-0.1-0.2-0.3-0.4-0.3-0.6c0,0,0,0,0,0C111.6,4.2,114.5,4.1,115.5,4.5z M112.7,3.9
						C112.7,3.9,112.8,3.9,112.7,3.9C112.7,3.9,112.7,3.9,112.7,3.9z M118.3,8.6c-0.7,1.7-2.5,2.2-4.1,1.8
						C116.2,10.5,118.8,7.7,118.3,8.6z M118.3,5.9c0,0.2-0.1,0.3-0.2,0.5c-0.5-1-1.1-2.4-2.3-2.5c0,0,0,0,0,0
						c-0.7-0.6-1.8-0.4-2.7-0.3c-0.3-0.1-0.9,0.7-1.1,0.4c0,0,0,0,0,0l0,0c0,0,1.2-3,4.2-1.2C118.4,4,118.5,5.3,118.3,5.9z M119,5.2
						C119,5.2,119,5.2,119,5.2C119,5.2,119,5.1,119,5.2z M130.5,10.8C130.5,10.8,130.5,10.8,130.5,10.8
						C130.5,10.8,130.5,10.8,130.5,10.8z M138,4.4C138,4.4,138,4.4,138,4.4C138,4.4,138,4.4,138,4.4z M138,3.7
						C138,3.7,138,3.7,138,3.7C138,3.7,138,3.7,138,3.7C138,3.7,137.9,3.7,138,3.7z M138,4.9C138,4.9,138,4.9,138,4.9
						C138,4.9,138,4.9,138,4.9z M132.9,1.7C132.9,1.7,132.9,1.7,132.9,1.7C132.9,1.7,132.9,1.7,132.9,1.7z M136.1,9.7
						C136.1,9.7,136.1,9.7,136.1,9.7C136.1,9.7,136.1,9.7,136.1,9.7z M137.9,7.2C137.9,7.2,137.9,7.2,137.9,7.2
						C138,7.2,137.9,7.2,137.9,7.2z M137.9,6.8C137.9,6.8,137.9,6.8,137.9,6.8c0,0.3-0.1,0.6-0.2,0.9c-0.1,0.4-0.3,0.6-0.5,0.9
						c0,0.1-0.1,0.1-0.1,0.2c-0.5,0.6-1,0.9-1.4,1c-0.1,0.1-0.2,0.2-0.4,0.2c-3.9,1.8-7.2-4.3-3.9-7c1.5-1.3,3.6-0.9,5.1,0.1
						C136.9,3.3,138.5,4.2,137.9,6.8z M138.1,9.2C138.1,9.2,138.1,9.2,138.1,9.2C138.1,9.2,138.1,9.2,138.1,9.2z M149.2,5.1
						C149.2,5.1,149.3,5.1,149.2,5.1C149.3,5.1,149.3,5.1,149.2,5.1z"/>
				</g>
				
					<linearGradient id="SVGID_00000056387659241639413780000016992601255210858133_" gradientUnits="userSpaceOnUse" x1="94.6227" y1="1.2163" x2="94.6886" y2="1.2163">
					<stop  offset="0" style="stop-color:#372D81"/>
					<stop  offset="0.2954" style="stop-color:#E6295E"/>
					<stop  offset="0.6491" style="stop-color:#E9572A"/>
					<stop  offset="0.9963" style="stop-color:#FAB932"/>
				</linearGradient>
				<path style="fill:url(#SVGID_00000056387659241639413780000016992601255210858133_);" d="M94.7,1.2C94.7,1.2,94.6,1.2,94.7,1.2
					C94.6,1.2,94.7,1.3,94.7,1.2z"/>
				
					<linearGradient id="SVGID_00000079483893785585748030000003583234217004064180_" gradientUnits="userSpaceOnUse" x1="94.6227" y1="1.2163" x2="94.6886" y2="1.2163">
					<stop  offset="0" style="stop-color:#372D81"/>
					<stop  offset="0.2954" style="stop-color:#E6295E"/>
					<stop  offset="0.6491" style="stop-color:#E9572A"/>
					<stop  offset="0.9963" style="stop-color:#FAB932"/>
				</linearGradient>
				<path style="fill:url(#SVGID_00000079483893785585748030000003583234217004064180_);" d="M94.7,1.2C94.7,1.2,94.6,1.2,94.7,1.2
					C94.6,1.2,94.7,1.3,94.7,1.2z"/>
				
					<linearGradient id="SVGID_00000133520909792905798620000001232069899212780720_" gradientUnits="userSpaceOnUse" x1="78.4208" y1="1.2163" x2="150.3345" y2="1.2163">
					<stop  offset="0" style="stop-color:#372D81"/>
					<stop  offset="0.2954" style="stop-color:#E6295E"/>
					<stop  offset="0.6491" style="stop-color:#E9572A"/>
					<stop  offset="0.9963" style="stop-color:#FAB932"/>
				</linearGradient>
				<path style="fill:url(#SVGID_00000133520909792905798620000001232069899212780720_);" d="M94.7,1.2C94.7,1.2,94.6,1.2,94.7,1.2
					C94.6,1.2,94.7,1.3,94.7,1.2z"/>
				
					<linearGradient id="SVGID_00000079453827411156623540000011212829308568872126_" gradientUnits="userSpaceOnUse" x1="96.8734" y1="2.9924" x2="96.917" y2="2.9924">
					<stop  offset="0" style="stop-color:#372D81"/>
					<stop  offset="0.2954" style="stop-color:#E6295E"/>
					<stop  offset="0.6491" style="stop-color:#E9572A"/>
					<stop  offset="0.9963" style="stop-color:#FAB932"/>
				</linearGradient>
				<path style="fill:url(#SVGID_00000079453827411156623540000011212829308568872126_);" d="M96.9,3C96.9,3,96.9,3,96.9,3
					C96.9,3,96.9,3,96.9,3z"/>
				
					<linearGradient id="SVGID_00000152249854584501918050000005780406219917769395_" gradientUnits="userSpaceOnUse" x1="96.8734" y1="2.9924" x2="96.917" y2="2.9924">
					<stop  offset="0" style="stop-color:#372D81"/>
					<stop  offset="0.2954" style="stop-color:#E6295E"/>
					<stop  offset="0.6491" style="stop-color:#E9572A"/>
					<stop  offset="0.9963" style="stop-color:#FAB932"/>
				</linearGradient>
				<path style="fill:url(#SVGID_00000152249854584501918050000005780406219917769395_);" d="M96.9,3C96.9,3,96.9,3,96.9,3
					C96.9,3,96.9,3,96.9,3z"/>
				
					<linearGradient id="SVGID_00000062168709222178738840000011656085408591896746_" gradientUnits="userSpaceOnUse" x1="78.4208" y1="2.9924" x2="150.3345" y2="2.9924">
					<stop  offset="0" style="stop-color:#372D81"/>
					<stop  offset="0.2954" style="stop-color:#E6295E"/>
					<stop  offset="0.6491" style="stop-color:#E9572A"/>
					<stop  offset="0.9963" style="stop-color:#FAB932"/>
				</linearGradient>
				<path style="fill:url(#SVGID_00000062168709222178738840000011656085408591896746_);" d="M96.9,3C96.9,3,96.9,3,96.9,3
					C96.9,3,96.9,3,96.9,3z"/>
				
					<linearGradient id="SVGID_00000018196248948216487670000012975761876817797267_" gradientUnits="userSpaceOnUse" x1="97.0592" y1="2.0029" x2="97.0807" y2="2.0029">
					<stop  offset="0" style="stop-color:#372D81"/>
					<stop  offset="0.2954" style="stop-color:#E6295E"/>
					<stop  offset="0.6491" style="stop-color:#E9572A"/>
					<stop  offset="0.9963" style="stop-color:#FAB932"/>
				</linearGradient>
				<path style="fill:url(#SVGID_00000018196248948216487670000012975761876817797267_);" d="M97.1,2C97.1,2,97.1,2,97.1,2
					C97.1,2,97.1,2,97.1,2z"/>
				
					<linearGradient id="SVGID_00000086668115679064972290000015784146937685898682_" gradientUnits="userSpaceOnUse" x1="97.0592" y1="2.0029" x2="97.0807" y2="2.0029">
					<stop  offset="0" style="stop-color:#372D81"/>
					<stop  offset="0.2954" style="stop-color:#E6295E"/>
					<stop  offset="0.6491" style="stop-color:#E9572A"/>
					<stop  offset="0.9963" style="stop-color:#FAB932"/>
				</linearGradient>
				<path style="fill:url(#SVGID_00000086668115679064972290000015784146937685898682_);" d="M97.1,2C97.1,2,97.1,2,97.1,2
					C97.1,2,97.1,2,97.1,2z"/>
				
					<linearGradient id="SVGID_00000140694430129219159730000012101612946261217666_" gradientUnits="userSpaceOnUse" x1="78.4208" y1="2.0029" x2="150.3345" y2="2.0029">
					<stop  offset="0" style="stop-color:#372D81"/>
					<stop  offset="0.2954" style="stop-color:#E6295E"/>
					<stop  offset="0.6491" style="stop-color:#E9572A"/>
					<stop  offset="0.9963" style="stop-color:#FAB932"/>
				</linearGradient>
				<path style="fill:url(#SVGID_00000140694430129219159730000012101612946261217666_);" d="M97.1,2C97.1,2,97.1,2,97.1,2
					C97.1,2,97.1,2,97.1,2z"/>
				
					<linearGradient id="SVGID_00000032617557600977691680000001844309373118157719_" gradientUnits="userSpaceOnUse" x1="92.454" y1="6.1095" x2="92.4725" y2="6.1095">
					<stop  offset="0" style="stop-color:#372D81"/>
					<stop  offset="0.2954" style="stop-color:#E6295E"/>
					<stop  offset="0.6491" style="stop-color:#E9572A"/>
					<stop  offset="0.9963" style="stop-color:#FAB932"/>
				</linearGradient>
				<path style="fill:url(#SVGID_00000032617557600977691680000001844309373118157719_);" d="M92.5,6c0,0,0,0.1,0,0.1
					C92.5,6.1,92.5,6.1,92.5,6z"/>
				
					<linearGradient id="SVGID_00000022530969193401052220000014629898120545756803_" gradientUnits="userSpaceOnUse" x1="78.4207" y1="6.1095" x2="150.3347" y2="6.1095">
					<stop  offset="0" style="stop-color:#372D81"/>
					<stop  offset="0.2954" style="stop-color:#E6295E"/>
					<stop  offset="0.6491" style="stop-color:#E9572A"/>
					<stop  offset="0.9963" style="stop-color:#FAB932"/>
				</linearGradient>
				<path style="fill:url(#SVGID_00000022530969193401052220000014629898120545756803_);" d="M92.5,6c0,0,0,0.1,0,0.1
					C92.5,6.1,92.5,6.1,92.5,6z"/>
				
					<linearGradient id="SVGID_00000123413141843696832780000011182861676102120347_" gradientUnits="userSpaceOnUse" x1="96.7886" y1="3.9659" x2="96.8113" y2="3.9659">
					<stop  offset="0" style="stop-color:#372D81"/>
					<stop  offset="0.2954" style="stop-color:#E6295E"/>
					<stop  offset="0.6491" style="stop-color:#E9572A"/>
					<stop  offset="0.9963" style="stop-color:#FAB932"/>
				</linearGradient>
				<path style="fill:url(#SVGID_00000123413141843696832780000011182861676102120347_);" d="M96.8,4C96.8,4,96.8,4,96.8,4
					C96.8,4,96.8,4,96.8,4z"/>
			</g>
		</g>
	</g>
</g>
</svg>
