<?xml version="1.0" encoding="utf-8"?>
<!-- Generator: Adobe Illustrator 27.2.0, SVG Export Plug-In . SVG Version: 6.00 Build 0)  -->
<svg version="1.1" id="Layer_1" xmlns="http://www.w3.org/2000/svg" xmlns:xlink="http://www.w3.org/1999/xlink" x="0px" y="0px"
	 viewBox="0 0 218.1 32.7" style="enable-background:new 0 0 218.1 32.7;" xml:space="preserve">
<style type="text/css">
	.st0{fill:#262262;}
	.st1{fill:#70C8B9;}
</style>
<g>
	<g>
		<path class="st0" d="M3.5,1.6c0-0.2,0.1-0.3,0.3-0.3h11.5c0.2,0,0.3,0.1,0.3,0.3l-0.4,3.8c0,0.2-0.2,0.3-0.3,0.3h-3.1v10.1
			c0,0.2-0.1,0.3-0.3,0.3H7.7c-0.2,0-0.3-0.1-0.3-0.3V5.7H3.8c-0.2,0-0.3-0.1-0.3-0.3V1.6z"/>
		<path class="st0" d="M16.8,4.6c0-0.2,0.1-0.3,0.3-0.3h2.4c0.2,0,0.3,0.1,0.3,0.3l0.3,0.7c0.7-0.9,1.7-1.4,3-1.4
			c0.3,0,0.6,0.1,0.9,0.1c0.1,0,0.3,0.1,0.5,0.1l0.5,0.1c0.1,0,0.2,0.1,0.2,0.2c0,0,0,0.1,0,0.1L24.5,8c-0.1,0.2-0.2,0.2-0.4,0.2
			C23.7,8.1,23.3,8,22.7,8c-0.7,0-1.1,0.3-1.3,0.6c-0.2,0.2-0.2,0.3-0.2,0.3v6.8c0,0.2-0.2,0.3-0.3,0.3h-3.8c-0.2,0-0.3-0.2-0.3-0.3
			V4.6z"/>
		<path class="st0" d="M29.2,8.7c1.1,0,2.1,0.2,2.8,0.7V8.9c0-0.6-0.5-1-1-1c-0.8,0-1.9,0.1-3.1,0.4c-0.2,0-0.3,0-0.4-0.2L26.8,5
			c0-0.2,0-0.3,0.2-0.4C28.5,4.2,29.9,4,31.3,4c2,0,3.3,0.4,4.1,1.4c0.8,1,1.1,2.5,1.1,4.8v5.6c0,0.2-0.2,0.3-0.3,0.3h-2.7
			c-0.2,0-0.3-0.2-0.3-0.3l0-0.3c-0.5,0.3-1,0.6-1.6,0.7c-0.5,0.2-1.3,0.2-2.2,0.2c-1.1,0-2.1-0.4-2.9-1.1c-0.8-0.7-1.2-1.7-1.2-2.9
			c0-0.8,0.2-1.5,0.6-2.1C26.6,9.2,27.8,8.7,29.2,8.7z M31.1,13c0.2,0,0.5-0.1,0.7-0.2c0.2-0.1,0.3-0.3,0.3-0.4V12
			c0-0.2-0.1-0.3-0.3-0.4c-0.2-0.1-0.4-0.2-0.7-0.2c-0.7,0-1.1,0.3-1.1,0.8C30,12.7,30.3,13,31.1,13z"/>
		<path class="st0" d="M38.3,4.6c0-0.2,0.1-0.3,0.3-0.3h2.4c0.1,0,0.2,0.1,0.3,0.3L41.6,5c0.5-0.3,1-0.5,1.6-0.7S44.2,4,44.6,4
			c1.7,0,3,0.5,3.8,1.4c0.8,0.9,1.2,2,1.2,3.3v7.1c0,0.2-0.2,0.3-0.3,0.3h-3.8c-0.2,0-0.3-0.2-0.3-0.3V9.4c0-0.9-0.4-1.4-1-1.4
			c-0.5,0-1,0.3-1.2,0.5l-0.2,0.2v7.1c0,0.2-0.2,0.3-0.3,0.3h-3.8c-0.2,0-0.3-0.2-0.3-0.3V4.6z"/>
		<path class="st0" d="M52.3,5.1c0.9-0.8,2-1.2,3.5-1.2c1.2,0,2.6,0.3,4.2,0.9c0.2,0.1,0.2,0.2,0.1,0.3L59.2,8
			c-0.1,0.1-0.2,0.2-0.3,0.1c-1.2-0.5-2.1-0.7-2.8-0.7c-0.5,0-0.8,0.1-0.8,0.5c0,0.3,1,0.4,2.1,0.7c0.7,0.2,1.5,0.5,2.1,1.1
			c0.6,0.5,1,1.4,1,2.6c0,1.2-0.4,2.2-1.3,3c-0.9,0.8-2,1.2-3.5,1.2c-1.2,0-2.7-0.3-4.2-0.9c-0.1,0-0.2-0.2-0.2-0.3l1.1-2.8
			c0.1-0.2,0.2-0.2,0.3-0.2l0.5,0.2c0.3,0.1,0.6,0.2,0.8,0.3c0.2,0.1,0.4,0.1,0.7,0.2C55,13,55.3,13,55.5,13c0.5,0,0.7-0.2,0.7-0.5
			c0-0.3-1-0.4-2-0.7c-0.7-0.2-1.5-0.6-2.1-1.1c-0.6-0.5-1-1.5-1-2.6C51,6.9,51.5,5.9,52.3,5.1z"/>
		<path class="st0" d="M60.8,4.6c0-0.2,0.1-0.3,0.3-0.3h1.1c0-2.5,1.3-3.8,3.5-3.8H68c0.2,0,0.3,0.1,0.3,0.3v2.1
			c0,0.2-0.1,0.3-0.3,0.3c-0.9,0-1.4,0.4-1.4,1.1h1.5c0.2,0,0.3,0.1,0.3,0.3l-0.2,2.1c0,0.2-0.2,0.3-0.3,0.3h-1.2v8.8
			c0,0.2-0.1,0.3-0.3,0.3h-3.8c-0.2,0-0.3-0.1-0.3-0.3V7h-1.1c-0.2,0-0.3-0.1-0.3-0.3V4.6z"/>
		<path class="st0" d="M69.2,10.2C69.2,9,69.5,8,70,7.1c0.5-1,1.3-1.7,2.3-2.3c1-0.6,2.1-0.8,3.3-0.8c1.2,0,2.3,0.3,3.3,0.8
			c1,0.6,1.7,1.3,2.3,2.2C81.7,8,82,9,82,10.2c0,1.1-0.3,2.2-0.8,3.1c-0.5,0.9-1.3,1.7-2.3,2.3c-1,0.6-2.1,0.8-3.3,0.8
			c-1.2,0-2.3-0.3-3.3-0.8c-1-0.6-1.7-1.3-2.3-2.3C69.5,12.4,69.2,11.3,69.2,10.2z M74.3,11.7c0.4,0.4,0.8,0.6,1.3,0.6
			c0.5,0,1-0.2,1.3-0.6c0.3-0.4,0.5-0.9,0.5-1.5c0-0.6-0.2-1.1-0.5-1.5C76.6,8.3,76.1,8,75.6,8c-0.5,0-1,0.2-1.3,0.6
			c-0.3,0.4-0.5,0.9-0.5,1.5C73.7,10.8,73.9,11.3,74.3,11.7z"/>
		<path class="st0" d="M83.5,4.6c0-0.2,0.1-0.3,0.3-0.3h2.4c0.2,0,0.3,0.1,0.3,0.3l0.3,0.7c0.7-0.9,1.7-1.4,3-1.4
			c0.3,0,0.6,0.1,0.9,0.1c0.1,0,0.3,0.1,0.5,0.1l0.5,0.1C92,4.3,92,4.4,92,4.5c0,0,0,0.1,0,0.1L91.2,8c-0.1,0.2-0.2,0.2-0.4,0.2
			C90.4,8.1,90,8,89.4,8c-0.7,0-1.1,0.3-1.3,0.6C88,8.8,88,8.9,88,8.9v6.8c0,0.2-0.2,0.3-0.3,0.3h-3.8c-0.2,0-0.3-0.2-0.3-0.3V4.6z"
			/>
	</g>
	<g>
		<rect x="3.5" y="-2.6" class="st0" width="21.2" height="0.5"/>
	</g>
	<g>
		<path class="st0" d="M96.1-15.8C96.1-15.8,96.1-15.8,96.1-15.8L96.1-15.8z"/>
		<path class="st0" d="M96.1-15.8C96.1-15.8,96.1-15.8,96.1-15.8L96.1-15.8z"/>
		<g>
			<path class="st0" d="M96.1-15.8C96.1-15.8,96.1-15.8,96.1-15.8L96.1-15.8z"/>
			<path class="st0" d="M96.1-15.8C96.1-15.8,96.1-15.8,96.1-15.8L96.1-15.8z"/>
			<g>
				<path class="st0" d="M96.1-15.8C96.1-15.8,96.1-15.8,96.1-15.8L96.1-15.8z"/>
				<path class="st0" d="M96.1-15.8C96.1-15.8,96.1-15.8,96.1-15.8L96.1-15.8z"/>
			</g>
		</g>
	</g>
	<path class="st0" d="M97.2-16.5c-1.6-0.3-3-0.3-4.5-0.2c-4.6-0.2-9.6,3.8-9.6,4.2c-0.4,0.2-0.6,0.7-1,1c-3.3,3.8,1.1-3.5-0.8-5.3
		c-0.5-1.3-1.6-2.5-2.9-3.1c-7.2-3.8-13.3,5.5-7.1,10.7c0,0.4-0.7,0.2-0.9,0c-0.4-0.5-1.3-0.3-1.7-0.9c-1.8-1-2.8-3-4.5-4.2
		c-1.5-1-4-0.5-5.3,1c-1,0.6-2.5,0.9-3.2,1.7c-0.4-1.4,0-3.3-0.6-4.9c-0.2-1.9-2.1-4.1-4.1-4.2c-0.8,0.1-1.4-0.4-2.1-0.4
		c-2.5-0.9-5,0.8-4.5,3.4c-1.3,1.1-1.5,3.7-1,5.3c0.2,0.4,0.5,0.8,0.4,1.1c0,0,0,0,0,0c-0.2,1.2-3.5-2.2-4.1-2.6
		c-0.6-0.6-0.9-1-1.4-1.8c1.7-1.1,1.8-4.8,0-5.6c-2-0.9-3.7,1.5-2.6,3.3c1.3,2.2,1,2.6-1.7,2.5c-0.1,0-0.3,0-0.4,0
		c-1.2-0.6-3.4,0.1-4.1-1.1c-0.7-1.1-1.5-2-2.6-2.8c-0.3-0.2-3.7-2.8-7.2-1.9c-4.3,1.1-5.7,6.2-2.6,9.4c2,2.1-3.7-2.1-4.4-1.9
		c-0.8-0.8-2.1-0.6-3.2-1.3c-0.9-0.4-2.2-0.3-3.3-0.6c-1.8,0.1-4.4-0.4-5.7,0.6c-0.7,0.4,0.7,1.6,1.1,0.9c1.9-0.3,3.9-0.2,5.8,0.1
		c0.1,0,0.1,0,0.2,0c1.9,0.2,3.9,0.9,5.5,1.7c0.2,0,0.3,0.1,0.5,0.2c2.2,1.1,3.7,2.3,3.7,2.3l0,0c2,1.1,4.1,1.7,6.5,1.2
		c0.5,0.1,0.6-0.5,1.1-0.3c0.5-0.4,1.1-0.7,1.5-1.2c1.7-0.4,3.6-1.7,3.5-3.8c-0.2-1.9,3-0.3,3.9-0.6c2,0.6,3.5-1.1,4.8,0.8
		c1.9,2.6,4.2,3.9,6.6,5c0.7,1,1.5,2.2,2.8,2.1c1.1-0.1,2.5,0.3,3.5-0.2c0.3-0.3,0.5-0.6,1-0.4c0.8-0.4,1.4-1.2,2.2-2
		c1.7-1.9,5.7-3.6,5.7-3.6l0,0c2.7-1.8,4.1,0.5,6.5,2.9c1.3,1.2,3.1,2.3,4.7,2.5c12.7,2.1,9.8-7.4,21.2-8.1c0.1,0,0.1,0,0.2,0
		c0.2,0,0.5,0,0.7,0c0.8,0,1.5,0,2.2,0.1C96.5-15.2,98.2-15.9,97.2-16.5z M17-17.3C16.9-17.1,16.9-17.2,17-17.3c0,0,0-0.1,0.1-0.2
		c0.2-0.3,0.3-0.8,0.4-0.2C17.3-17.8,17.1-17.5,17-17.3z M25.4-18.7C25.5-18.6,25.5-18.6,25.4-18.7C25.4-18.7,25.4-18.7,25.4-18.7z
		 M22.4-21.1C22.4-21,22.4-21,22.4-21.1C22.4-21.1,22.5-21.1,22.4-21.1z M20.3-18.8c0.3,0.2-0.7,1.2-0.8,0.5L20.3-18.8z M19.4-14.4
		c0-0.1,0-0.1,0-0.2C19.5-14.5,19.5-14.4,19.4-14.4z M19-13.4c0.7,0.6,0.2,0.5-0.5,0.3C17.2-14,18-14,19-13.4z M19.1-11.6
		c0,0,2.3-1.1,4,1C23.1-10.6,21.2-9.6,19.1-11.6z M23.6-12.2C23.6-12.3,23.6-12.3,23.6-12.2C23.6-12.2,23.6-12.2,23.6-12.2z
		 M23.8-11.5C23.8-11.5,23.8-11.5,23.8-11.5C23.8-11.5,23.8-11.5,23.8-11.5z M22.7-16.5c0.5,0.6,1.8-0.1,1.7,0.9
		c-0.1,0.1-0.2,0.1-0.3,0.1C23.8-15.8,21.7-16.6,22.7-16.5z M24.7-11.2C24.7-11.2,24.6-11.3,24.7-11.2
		C24.7-11.3,24.7-11.2,24.7-11.2z M24.2-11.6c0.2-0.4,0.8-0.6,1.2-1C25.9-12.6,24.7-11.2,24.2-11.6z M25.3-17.4
		C25.3-17.4,25.3-17.4,25.3-17.4C25.3-17.3,25.3-17.4,25.3-17.4z M23.4-18.9c0.8-0.3,1.3,0.5,2,0.9C26-17.4,23.6-18.8,23.4-18.9z
		 M25.6-20C25.6-20,25.7-20,25.6-20C25.7-20,25.6-20,25.6-20z M27.7-17.2c0.3-0.1,0.9,1.3,0.3,1.1C28-16.5,27-18,27.7-17.2z
		 M28.4-12.9c-1,1.8,0-1.1,0.1-1.8C29-15,28.7-13.1,28.4-12.9z M37.1-15.8C37.1-15.8,37.1-15.8,37.1-15.8
		C37.1-15.8,37.1-15.8,37.1-15.8z M37.7-17.1c-0.4-0.9-1.2-1.8-0.9-2.8C38.9-22.2,39.1-16.3,37.7-17.1z M46.5-19.6
		C46.5-19.6,46.5-19.6,46.5-19.6C46.5-19.6,46.5-19.6,46.5-19.6z M45.9-10.2c-0.5-1.1-0.5-2.6-0.4-4c0.7,0.3,0.8,1.3,1.5,1.9
		c0.8,0.8,2.1,1.5,3.2,1.7c-0.3,0.1,1.2-0.2,1,0.2C49.6-9.8,47.6-9.7,45.9-10.2z M50.6-16.6c0.3,0.4,1,0.3,1.3,0.8
		c0.8,1.1,1.6,2,0.6,3.4c-1.3,0.5-2.4,1-3.8,0.1c-0.5-0.6-1.1-1.2-1.5-1.8c-0.2-0.3-0.4-0.6-0.5-0.8c0,0,0,0,0,0
		C45.3-17.1,49.1-17.2,50.6-16.6z M46.7-17.5C46.8-17.4,46.8-17.5,46.7-17.5C46.8-17.4,46.7-17.5,46.7-17.5z M54.3-11.1
		c-1,2.3-3.3,3-5.5,2.5C51.5-8.5,55-12.3,54.3-11.1z M54.4-14.8c0,0.2-0.1,0.5-0.2,0.7c-0.6-1.3-1.5-3.2-3.2-3.4c0,0,0,0,0,0
		c-1-0.8-2.5-0.5-3.6-0.4C47-18,46.1-17,45.8-17.4c0,0,0,0,0-0.1l0,0c0,0,1.6-4.1,5.6-1.6C54.4-17.3,54.5-15.5,54.4-14.8z
		 M55.2-15.8C55.2-15.8,55.2-15.8,55.2-15.8C55.2-15.8,55.2-15.8,55.2-15.8z M70.8-8.1C70.8-8.2,70.8-8.2,70.8-8.1
		C70.8-8.1,70.8-8.1,70.8-8.1z M80.8-16.7C80.8-16.7,80.8-16.7,80.8-16.7C80.8-16.7,80.8-16.7,80.8-16.7z M80.8-17.7
		C80.8-17.7,80.8-17.7,80.8-17.7C80.8-17.7,80.8-17.7,80.8-17.7C80.8-17.7,80.8-17.7,80.8-17.7z M80.8-16.1
		C80.8-16.1,80.8-16.1,80.8-16.1C80.8-16.1,80.8-16.1,80.8-16.1z M74-20.4C74-20.4,74-20.4,74-20.4C74-20.5,74-20.4,74-20.4z
		 M78.3-9.6C78.3-9.6,78.3-9.6,78.3-9.6C78.3-9.6,78.3-9.6,78.3-9.6z M80.8-13C80.8-13,80.8-13,80.8-13C80.8-13,80.8-13,80.8-13z
		 M80.7-13.5C80.7-13.5,80.7-13.5,80.7-13.5c-0.1,0.4-0.2,0.8-0.3,1.2c-0.1,0.5-0.5,0.9-0.7,1.2c0,0.1-0.1,0.2-0.2,0.2
		c-0.7,0.9-1.4,1.2-1.9,1.4c-0.2,0.1-0.3,0.2-0.5,0.3c-5.2,2.4-9.7-5.8-5.2-9.4c2-1.7,4.8-1.2,6.9,0.1
		C79.4-18.2,81.5-17.1,80.7-13.5z M81-10.3C81-10.3,81-10.3,81-10.3C81-10.3,81-10.3,81-10.3z M96.1-15.8
		C96.1-15.8,96.1-15.8,96.1-15.8C96.1-15.8,96.1-15.8,96.1-15.8z"/>
	<g>
		<path class="st1" d="M4.4,17c0-0.2,0.1-0.3,0.3-0.3h3.8c0.3,0,0.6,0.2,0.8,0.4l4,8.6l4-8.6c0.1-0.3,0.5-0.4,0.8-0.4h3.8
			c0.2,0,0.3,0.2,0.3,0.3v14.8c0,0.2-0.1,0.3-0.3,0.3h-4.1c-0.2,0-0.3-0.2-0.3-0.3v-4.9L15,31.8c-0.1,0.2-0.4,0.3-0.6,0.3H12
			c-0.2,0-0.5-0.2-0.6-0.3l-2.3-4.9v4.9c0,0.2-0.2,0.3-0.3,0.3H4.7c-0.2,0-0.3-0.2-0.3-0.3V17z"/>
		<path class="st1" d="M24.1,22.7c0.5-1,1.3-1.8,2.3-2.4c1-0.6,2.1-0.9,3.4-0.9s2.4,0.3,3.3,0.9C35,21.5,36,23.6,36,26
			c0,0.4,0,0.7-0.1,1c0,0.2-0.1,0.3-0.3,0.3H28c0,0.1,0,0.1,0.1,0.4c0.1,0.1,0.2,0.3,0.3,0.4c0.2,0.2,0.8,0.4,1.5,0.4
			c0.5,0,1,0,1.4-0.1c0.5-0.1,0.8-0.1,1.1-0.2l1.3-0.3c0.2,0,0.3,0,0.3,0.2l1.1,3.1c0,0.2,0,0.3-0.2,0.3c-2,0.6-3.7,1-5.1,1
			c-1.2,0-2.3-0.3-3.3-0.9c-1-0.6-1.8-1.4-2.4-2.4c-0.6-1-0.9-2.1-0.9-3.3C23.3,24.8,23.5,23.7,24.1,22.7z M31.4,24.9
			c0-0.4-0.2-0.7-0.5-0.9c-0.3-0.2-0.7-0.4-1.2-0.4c-0.4,0-0.8,0.1-1.2,0.4c-0.3,0.2-0.5,0.5-0.5,0.9H31.4z"/>
		<path class="st1" d="M37.4,20.2c0-0.2,0.2-0.3,0.3-0.3h2.5c0.1,0,0.3,0.1,0.4,0.3l0.2,0.4c0.5-0.3,1-0.6,1.6-0.8
			c0.6-0.2,1.1-0.3,1.6-0.3c1.7,0,3.1,0.5,3.9,1.5c0.8,0.9,1.2,2.1,1.2,3.4v7.4c0,0.2-0.2,0.3-0.3,0.3h-3.9c-0.2,0-0.3-0.2-0.3-0.3
			v-6.7c0-0.9-0.4-1.4-1.1-1.4c-0.5,0-1.1,0.3-1.3,0.5L42,24.4v7.4c0,0.2-0.2,0.3-0.3,0.3h-3.9c-0.2,0-0.3-0.2-0.3-0.3V20.2z"/>
		<path class="st1" d="M49.4,20.2c0-0.2,0.2-0.3,0.3-0.3H51v-2.5c0-0.1,0.2-0.3,0.3-0.3l3.9-0.4h0c0.1,0,0.1,0,0.2,0.1
			c0.1,0.1,0.1,0.1,0.1,0.2v2.8h1.5c0.2,0,0.3,0.1,0.3,0.3l-0.2,2.2c0,0.2-0.2,0.3-0.3,0.3h-1.2v9.1c0,0.2-0.2,0.3-0.3,0.3h-3.9
			c-0.2,0-0.3-0.2-0.3-0.3v-9.1h-1.3c-0.2,0-0.3-0.1-0.3-0.3V20.2z"/>
		<path class="st1" d="M58.2,22.7c0.5-1,1.3-1.8,2.3-2.4c1-0.6,2.1-0.9,3.4-0.9s2.4,0.3,3.3,0.9c1.9,1.2,2.9,3.2,2.9,5.6
			c0,0.4,0,0.7-0.1,1c0,0.2-0.1,0.3-0.3,0.3h-7.5c0,0.1,0,0.1,0.1,0.4c0.1,0.1,0.2,0.3,0.3,0.4c0.2,0.2,0.8,0.4,1.5,0.4
			c0.5,0,1,0,1.4-0.1c0.5-0.1,0.8-0.1,1.1-0.2l1.3-0.3c0.2,0,0.3,0,0.3,0.2l1.1,3.1c0,0.2,0,0.3-0.2,0.3c-2,0.6-3.7,1-5.1,1
			c-1.2,0-2.3-0.3-3.3-0.9s-1.8-1.4-2.4-2.4c-0.6-1-0.9-2.1-0.9-3.3C57.4,24.8,57.7,23.7,58.2,22.7z M65.5,24.9
			c0-0.4-0.2-0.7-0.5-0.9c-0.3-0.2-0.7-0.4-1.2-0.4c-0.4,0-0.8,0.1-1.2,0.4c-0.3,0.2-0.5,0.5-0.5,0.9H65.5z"/>
	</g>
</g>
<g>
	<g>
		<path class="st0" d="M103.1,34.5c0-0.2,0.2-0.4,0.4-0.4h13.9c0.2,0,0.4,0.2,0.4,0.4l-0.5,4.6c0,0.2-0.2,0.4-0.4,0.4H113v12.1
			c0,0.2-0.2,0.4-0.4,0.4h-4.6c-0.2,0-0.4-0.2-0.4-0.4V39.4h-4.3c-0.2,0-0.4-0.2-0.4-0.4V34.5z"/>
		<path class="st0" d="M119.1,38.1c0-0.2,0.2-0.4,0.4-0.4h2.9c0.2,0,0.3,0.1,0.4,0.4l0.3,0.8c0.8-1.1,2-1.6,3.6-1.6
			c0.4,0,0.8,0.1,1,0.1c0.1,0,0.3,0.1,0.6,0.1l0.6,0.1c0.2,0,0.3,0.1,0.3,0.2c0,0,0,0.1,0,0.1l-1,4.2c-0.1,0.2-0.2,0.3-0.5,0.2
			c-0.5-0.2-1-0.3-1.7-0.3c-0.8,0-1.3,0.4-1.5,0.8c-0.2,0.3-0.2,0.3-0.2,0.4v8.2c0,0.2-0.2,0.4-0.4,0.4h-4.5c-0.2,0-0.4-0.2-0.4-0.4
			V38.1z"/>
		<path class="st0" d="M134,43c1.3,0,2.5,0.3,3.4,0.8v-0.6c0-0.7-0.6-1.2-1.2-1.2c-1,0-2.2,0.2-3.7,0.5c-0.2,0.1-0.4-0.1-0.4-0.3
			l-1-3.8c-0.1-0.2,0.1-0.4,0.3-0.4c1.8-0.5,3.5-0.8,5.2-0.8c2.4,0,3.9,0.5,4.9,1.7c1,1.2,1.3,3,1.3,5.7v6.7c0,0.2-0.2,0.4-0.4,0.4
			H139c-0.2,0-0.4-0.2-0.4-0.4l0-0.4c-0.6,0.4-1.3,0.7-1.9,0.9c-0.7,0.2-1.5,0.3-2.7,0.3c-1.3,0-2.5-0.4-3.5-1.3
			c-1-0.8-1.4-2-1.4-3.4c0-1,0.2-1.8,0.7-2.5C130.8,43.7,132.3,43,134,43z M136.2,48.1c0.3,0,0.6-0.1,0.8-0.2
			c0.2-0.2,0.4-0.3,0.4-0.5V47c0-0.2-0.1-0.4-0.4-0.5c-0.2-0.2-0.5-0.2-0.8-0.2c-0.9,0-1.3,0.3-1.3,0.9
			C134.9,47.8,135.3,48.1,136.2,48.1z"/>
		<path class="st0" d="M144.9,38.1c0-0.2,0.2-0.4,0.4-0.4h2.9c0.2,0,0.3,0.1,0.4,0.4l0.2,0.4c0.6-0.4,1.2-0.7,1.9-0.9
			c0.7-0.2,1.3-0.3,1.8-0.3c2,0,3.6,0.6,4.5,1.7c0.9,1,1.4,2.4,1.4,4v8.5c0,0.2-0.2,0.4-0.4,0.4h-4.5c-0.2,0-0.4-0.2-0.4-0.4v-7.7
			c0-1.1-0.5-1.6-1.3-1.6c-0.6,0-1.2,0.3-1.5,0.6l-0.2,0.2v8.5c0,0.2-0.2,0.4-0.4,0.4h-4.5c-0.2,0-0.4-0.2-0.4-0.4V38.1z"/>
		<path class="st0" d="M161.7,38.7c1.1-0.9,2.5-1.4,4.2-1.4c1.4,0,3.1,0.3,5.1,1c0.2,0.1,0.3,0.2,0.2,0.4l-1.3,3.4
			c-0.1,0.2-0.2,0.2-0.4,0.2c-1.4-0.6-2.6-0.8-3.4-0.8c-0.6,0-0.9,0.2-0.9,0.5c0,0.4,1.2,0.5,2.5,0.8c0.9,0.2,1.8,0.7,2.6,1.3
			c0.7,0.6,1.2,1.7,1.2,3.1c0,1.5-0.5,2.7-1.6,3.6c-1.1,0.9-2.5,1.4-4.2,1.4c-1.5,0-3.2-0.3-5.1-1c-0.2-0.1-0.2-0.2-0.2-0.4l1.3-3.4
			c0.1-0.2,0.2-0.3,0.4-0.2l0.6,0.2c0.4,0.2,0.7,0.3,0.9,0.3c0.2,0.1,0.5,0.1,0.9,0.2c0.4,0.1,0.7,0.1,1,0.1c0.6,0,0.9-0.2,0.9-0.6
			c0-0.3-1.1-0.5-2.5-0.8c-0.9-0.2-1.8-0.7-2.6-1.3c-0.7-0.6-1.2-1.8-1.2-3.1C160.2,40.8,160.7,39.6,161.7,38.7z"/>
		<path class="st0" d="M171.9,38.1c0-0.2,0.2-0.4,0.4-0.4h1.4c0-3,1.6-4.5,4.2-4.5h2.8c0.2,0,0.4,0.1,0.4,0.4v2.5
			c0,0.3-0.1,0.4-0.4,0.4c-1.1,0-1.7,0.4-1.7,1.3h1.8c0.2,0,0.4,0.2,0.4,0.4l-0.3,2.5c0,0.2-0.2,0.4-0.4,0.4h-1.5v10.5
			c0,0.2-0.1,0.4-0.4,0.4H174c-0.2,0-0.4-0.1-0.4-0.4V41h-1.4c-0.2,0-0.4-0.2-0.4-0.4V38.1z"/>
		<path class="st0" d="M182,44.8c0-1.4,0.3-2.6,1-3.8c0.6-1.1,1.6-2.1,2.7-2.7c1.2-0.7,2.5-1,4-1c1.5,0,2.8,0.3,4,1
			c1.2,0.7,2.1,1.6,2.7,2.7c0.6,1.1,1,2.4,1,3.8c0,1.4-0.3,2.6-1,3.8c-0.6,1.1-1.6,2-2.7,2.7c-1.2,0.7-2.5,1-4,1c-1.5,0-2.8-0.3-4-1
			c-1.2-0.7-2.1-1.6-2.7-2.7C182.4,47.4,182,46.2,182,44.8z M188.1,46.6c0.4,0.5,1,0.8,1.6,0.8c0.7,0,1.2-0.3,1.6-0.8
			c0.4-0.5,0.6-1.1,0.6-1.8c0-0.7-0.2-1.3-0.6-1.8c-0.4-0.5-1-0.8-1.6-0.8c-0.7,0-1.2,0.3-1.6,0.8c-0.4,0.5-0.6,1.1-0.6,1.8
			C187.4,45.5,187.7,46.1,188.1,46.6z"/>
		<path class="st0" d="M199.2,38.1c0-0.2,0.2-0.4,0.4-0.4h2.9c0.2,0,0.3,0.1,0.4,0.4l0.3,0.8c0.8-1.1,2-1.6,3.6-1.6
			c0.4,0,0.8,0.1,1,0.1c0.1,0,0.3,0.1,0.6,0.1l0.6,0.1c0.2,0,0.3,0.1,0.3,0.2c0,0,0,0.1,0,0.1l-1,4.2c-0.1,0.2-0.2,0.3-0.5,0.2
			c-0.5-0.2-1-0.3-1.7-0.3c-0.8,0-1.3,0.4-1.5,0.8c-0.2,0.3-0.2,0.3-0.2,0.4v8.2c0,0.2-0.2,0.4-0.4,0.4h-4.5c-0.2,0-0.4-0.2-0.4-0.4
			V38.1z"/>
	</g>
	<g>
		<rect x="103.1" y="29.5" class="st0" width="25.5" height="0.5"/>
	</g>
	<g>
		<path class="st0" d="M214.2,13.6C214.2,13.6,214.2,13.6,214.2,13.6L214.2,13.6z"/>
		<path class="st0" d="M214.2,13.6C214.2,13.6,214.3,13.6,214.2,13.6L214.2,13.6z"/>
		<g>
			<path class="st0" d="M214.2,13.6C214.2,13.6,214.3,13.6,214.2,13.6L214.2,13.6z"/>
			<path class="st0" d="M214.2,13.6C214.2,13.6,214.2,13.6,214.2,13.6L214.2,13.6z"/>
			<g>
				<path class="st0" d="M214.2,13.6C214.2,13.6,214.3,13.6,214.2,13.6L214.2,13.6z"/>
				<path class="st0" d="M214.2,13.6C214.2,13.6,214.2,13.6,214.2,13.6L214.2,13.6z"/>
			</g>
		</g>
	</g>
	<path class="st0" d="M215.7,12.7c-1.9-0.3-3.6-0.3-5.4-0.3c-5.5-0.3-11.6,4.6-11.5,5c-0.5,0.3-0.8,0.8-1.1,1.2
		c-3.9,4.5,1.4-4.2-0.9-6.3c-0.6-1.6-2-3.1-3.4-3.7c-8.7-4.5-16,6.6-8.6,12.9c-0.1,0.5-0.8,0.3-1,0c-0.4-0.5-1.5-0.3-2-1
		c-2.2-1.2-3.3-3.6-5.4-5.1c-1.8-1.2-4.9-0.6-6.4,1.2c-1.2,0.7-3,1.1-3.9,2c-0.5-1.7,0-4-0.7-5.9c-0.2-2.2-2.5-4.9-4.9-5.1
		c-1,0.1-1.7-0.5-2.5-0.5c-3-1-6,1-5.4,4.1c-1.6,1.3-1.8,4.5-1.2,6.4c0.3,0.5,0.6,0.9,0.5,1.3c0,0,0,0,0,0c-0.3,1.5-4.2-2.6-4.9-3.2
		c-0.7-0.7-1.1-1.2-1.7-2.2c2-1.3,2.2-5.7,0-6.7c-2.5-1.1-4.4,1.8-3.1,3.9c1.5,2.6,1.2,3.1-2,3.1c-0.2,0-0.3,0-0.5,0
		c-1.4-0.8-4.1,0.1-4.9-1.3c-0.8-1.3-1.8-2.4-3.1-3.3C131.1,9,127,5.9,122.8,7c-5.1,1.4-6.9,7.5-3.2,11.3c2.3,2.6-4.4-2.6-5.3-2.3
		c-0.9-0.9-2.5-0.8-3.8-1.6c-1-0.4-2.7-0.4-3.9-0.8c-2.2,0.2-5.3-0.5-6.8,0.7c-0.8,0.5,0.8,1.9,1.3,1.1c2.3-0.4,4.7-0.3,7,0.1
		c0.1,0,0.1,0,0.2,0c2.3,0.2,4.7,1.1,6.6,2.1c0.2,0.1,0.4,0.2,0.6,0.3c2.6,1.3,4.5,2.7,4.5,2.7l0,0c2.4,1.3,5,2.1,7.8,1.4
		c0.6,0.1,0.7-0.5,1.3-0.4c0.7-0.5,1.3-0.8,1.8-1.5c2.1-0.5,4.4-2.1,4.1-4.5c-0.3-2.3,3.6-0.3,4.7-0.7c2.4,0.8,4.2-1.3,5.8,0.9
		c2.2,3.1,5.1,4.7,7.9,6c0.8,1.2,1.9,2.6,3.4,2.5c1.3-0.1,3,0.3,4.1-0.2c0.4-0.3,0.6-0.7,1.2-0.5c1-0.5,1.7-1.5,2.6-2.4
		c2-2.3,6.9-4.4,6.9-4.4l0,0c3.3-2.2,5,0.6,7.9,3.5c1.6,1.4,3.7,2.8,5.7,3.1c15.2,2.5,11.8-8.9,25.4-9.7c0.1,0,0.2,0,0.3,0
		c0.3,0,0.6,0,0.9,0c0.9,0,1.8,0,2.7,0.2C214.7,14.3,216.8,13.5,215.7,12.7z M119.3,11.8C119.2,12,119.2,11.9,119.3,11.8
		c0-0.1,0.1-0.1,0.1-0.2c0.2-0.3,0.3-1,0.5-0.3C119.7,11.2,119.4,11.5,119.3,11.8z M129.4,10.1C129.5,10.2,129.5,10.2,129.4,10.1
		C129.4,10.1,129.4,10.1,129.4,10.1z M125.8,7.2C125.8,7.3,125.8,7.3,125.8,7.2C125.8,7.2,125.9,7.2,125.8,7.2z M123.3,9.9
		c0.4,0.2-0.8,1.4-1,0.6L123.3,9.9z M122.2,15.3c0-0.1,0-0.2,0-0.2C122.3,15.1,122.3,15.2,122.2,15.3z M121.7,16.4
		c0.9,0.8,0.2,0.6-0.6,0.3C119.6,15.8,120.6,15.8,121.7,16.4z M121.8,18.6c0,0,2.8-1.3,4.9,1.2C126.7,19.9,124.3,21,121.8,18.6z
		 M127.3,17.9C127.3,17.8,127.3,17.8,127.3,17.9C127.3,17.9,127.3,17.9,127.3,17.9z M127.5,18.7C127.5,18.7,127.5,18.7,127.5,18.7
		C127.5,18.7,127.5,18.7,127.5,18.7z M126.1,12.7c0.6,0.7,2.2-0.1,2,1c-0.1,0.2-0.2,0.1-0.4,0.1C127.4,13.5,124.9,12.7,126.1,12.7z
		 M128.5,19.1C128.5,19.1,128.5,19,128.5,19.1C128.5,19,128.5,19.1,128.5,19.1z M127.9,18.6c0.2-0.5,1-0.7,1.4-1.2
		C130,17.4,128.5,19.1,127.9,18.6z M129.3,11.7C129.3,11.7,129.3,11.7,129.3,11.7C129.3,11.7,129.2,11.7,129.3,11.7z M126.9,9.8
		c1-0.4,1.6,0.6,2.4,1.1C130.1,11.6,127.2,10,126.9,9.8z M129.7,8.5C129.7,8.5,129.7,8.5,129.7,8.5C129.7,8.5,129.7,8.5,129.7,8.5z
		 M132.2,11.9c0.3-0.1,1.1,1.6,0.3,1.3C132.5,12.7,131.3,10.9,132.2,11.9z M133,17c-1.2,2.1,0-1.3,0.1-2.2
		C133.8,14.5,133.3,16.8,133,17z M143.5,13.6C143.5,13.6,143.5,13.6,143.5,13.6C143.5,13.6,143.5,13.6,143.5,13.6z M144.1,12
		c-0.4-1.1-1.4-2.2-1.1-3.4C145.6,5.9,145.9,13,144.1,12z M154.8,9C154.8,9,154.8,9,154.8,9C154.8,9,154.8,9,154.8,9z M154,20.3
		c-0.6-1.4-0.6-3.1-0.5-4.8c0.8,0.4,1,1.5,1.8,2.3c1,1,2.6,1.8,3.8,2c-0.3,0.1,1.5-0.2,1.1,0.3C158.5,20.8,156.1,20.9,154,20.3z
		 M159.6,12.6c0.3,0.5,1.2,0.3,1.6,1c1,1.3,2,2.5,0.7,4.1c-1.6,0.6-2.9,1.2-4.5,0.1c-0.6-0.7-1.3-1.4-1.7-2.2
		c-0.2-0.4-0.4-0.7-0.6-1c0,0,0,0,0,0C153.3,12,157.9,11.9,159.6,12.6z M155,11.6C155.1,11.6,155.1,11.6,155,11.6
		C155,11.6,155,11.6,155,11.6z M164.1,19.3c-1.2,2.7-4,3.6-6.6,3C160.7,22.3,165,17.7,164.1,19.3z M164.2,14.8
		c0,0.3-0.1,0.6-0.2,0.8c-0.8-1.6-1.8-3.9-3.8-4.1c0,0,0,0,0,0c-1.2-0.9-3-0.6-4.4-0.5c-0.5-0.1-1.5,1.1-1.8,0.6c0,0,0,0,0-0.1l0,0
		c0,0,2-4.9,6.8-1.9C164.3,11.8,164.4,13.9,164.2,14.8z M165.2,13.6C165.2,13.6,165.2,13.6,165.2,13.6
		C165.2,13.6,165.2,13.6,165.2,13.6z M183.9,22.8C183.9,22.8,183.9,22.8,183.9,22.8C183.9,22.8,183.9,22.8,183.9,22.8z M196,12.5
		C196,12.5,196,12.5,196,12.5C196,12.5,196,12.5,196,12.5z M195.9,11.3C195.9,11.3,195.9,11.3,195.9,11.3
		C195.9,11.3,195.9,11.3,195.9,11.3C195.9,11.3,195.9,11.3,195.9,11.3z M195.9,13.3C195.9,13.3,195.9,13.3,195.9,13.3
		C196,13.2,195.9,13.3,195.9,13.3z M187.8,8C187.8,8,187.8,8,187.8,8C187.8,8,187.8,8,187.8,8z M192.9,21
		C192.9,21,192.9,21.1,192.9,21C192.9,21.1,192.9,21,192.9,21z M195.9,17C195.9,17,195.9,16.9,195.9,17C195.9,17,195.9,17,195.9,17z
		 M195.8,16.3C195.8,16.3,195.8,16.3,195.8,16.3c-0.1,0.5-0.2,1-0.4,1.4c-0.1,0.6-0.5,1-0.8,1.5c-0.1,0.1-0.1,0.2-0.2,0.2
		c-0.8,1-1.7,1.5-2.3,1.7c-0.2,0.1-0.4,0.3-0.6,0.4c-6.3,2.9-11.7-7-6.3-11.3c2.5-2.1,5.8-1.4,8.3,0.1
		C194.2,10.7,196.8,12.1,195.8,16.3z M196.2,20.2C196.2,20.2,196.2,20.2,196.2,20.2C196.2,20.2,196.2,20.2,196.2,20.2z M214.2,13.6
		C214.2,13.6,214.2,13.6,214.2,13.6C214.3,13.6,214.2,13.6,214.2,13.6z"/>
	<g>
		<path class="st1" d="M104.2,53c0-0.2,0.2-0.4,0.4-0.4h4.6c0.4,0,0.7,0.2,0.9,0.5l4.8,10.3l4.8-10.3c0.2-0.3,0.6-0.5,0.9-0.5h4.5
			c0.2,0,0.4,0.2,0.4,0.4v17.8c0,0.2-0.2,0.4-0.4,0.4h-5c-0.2,0-0.4-0.2-0.4-0.4v-5.9l-2.7,5.9c-0.1,0.2-0.4,0.4-0.7,0.4h-3
			c-0.2,0-0.6-0.2-0.7-0.4l-2.7-5.9v5.9c0,0.2-0.2,0.4-0.4,0.4h-5c-0.2,0-0.4-0.2-0.4-0.4V53z"/>
		<path class="st1" d="M127.8,59.9c0.7-1.2,1.6-2.1,2.8-2.8c1.2-0.7,2.5-1.1,4-1.1s2.8,0.4,4,1.1c2.3,1.4,3.5,3.8,3.5,6.7
			c0,0.4,0,0.9-0.1,1.2c0,0.2-0.2,0.3-0.4,0.3h-9c0,0.1,0,0.2,0.1,0.5c0.1,0.2,0.2,0.3,0.3,0.5c0.3,0.3,0.9,0.5,1.8,0.5
			c0.6,0,1.2,0,1.7-0.1c0.6-0.1,1-0.1,1.3-0.2l1.5-0.4c0.2-0.1,0.3,0,0.4,0.2L141,70c0.1,0.2,0,0.3-0.2,0.4
			c-2.4,0.8-4.4,1.2-6.1,1.2c-1.4,0-2.8-0.3-4-1c-1.2-0.7-2.2-1.6-2.9-2.8c-0.7-1.2-1.1-2.5-1.1-3.9C126.8,62.3,127.1,61,127.8,59.9
			z M136.5,62.5c0-0.4-0.2-0.8-0.6-1.1c-0.4-0.3-0.9-0.4-1.4-0.4c-0.5,0-1,0.1-1.4,0.4c-0.4,0.3-0.6,0.6-0.6,1.1H136.5z"/>
		<path class="st1" d="M143.8,56.8c0-0.2,0.2-0.4,0.4-0.4h3c0.2,0,0.3,0.1,0.4,0.4l0.2,0.4c0.6-0.4,1.2-0.7,2-0.9
			c0.7-0.2,1.3-0.3,1.9-0.3c2.1,0,3.8,0.7,4.7,1.7c1,1.1,1.5,2.5,1.5,4.1v8.9c0,0.2-0.2,0.4-0.4,0.4h-4.7c-0.2,0-0.4-0.2-0.4-0.4v-8
			c0-1.1-0.5-1.7-1.3-1.7c-0.6,0-1.3,0.4-1.6,0.6l-0.2,0.2v8.9c0,0.2-0.2,0.4-0.4,0.4h-4.7c-0.2,0-0.4-0.2-0.4-0.4V56.8z"/>
		<path class="st1" d="M158.2,56.8c0-0.2,0.2-0.4,0.4-0.4h1.5v-3c0-0.2,0.2-0.3,0.4-0.4l4.7-0.5h0c0.1,0,0.2,0.1,0.2,0.1
			c0.1,0.1,0.1,0.2,0.1,0.3v3.4h1.8c0.2,0,0.4,0.2,0.4,0.4l-0.3,2.6c0,0.2-0.2,0.4-0.4,0.4h-1.5v11c0,0.2-0.2,0.4-0.4,0.4h-4.7
			c-0.2,0-0.4-0.2-0.4-0.4v-11h-1.5c-0.2,0-0.4-0.2-0.4-0.4V56.8z"/>
		<path class="st1" d="M168.8,59.9c0.7-1.2,1.6-2.1,2.8-2.8c1.2-0.7,2.5-1.1,4-1.1s2.8,0.4,4,1.1c2.3,1.4,3.5,3.8,3.5,6.7
			c0,0.4,0,0.9-0.1,1.2c0,0.2-0.2,0.3-0.4,0.3h-9c0,0.1,0,0.2,0.1,0.5c0.1,0.2,0.2,0.3,0.3,0.5c0.3,0.3,0.9,0.5,1.8,0.5
			c0.6,0,1.2,0,1.7-0.1c0.6-0.1,1-0.1,1.3-0.2l1.5-0.4c0.2-0.1,0.3,0,0.4,0.2L182,70c0.1,0.2,0,0.3-0.2,0.4
			c-2.4,0.8-4.4,1.2-6.1,1.2c-1.4,0-2.8-0.3-4-1c-1.2-0.7-2.2-1.6-2.9-2.8c-0.7-1.2-1.1-2.5-1.1-3.9C167.8,62.3,168.1,61,168.8,59.9
			z M177.5,62.5c0-0.4-0.2-0.8-0.6-1.1c-0.4-0.3-0.9-0.4-1.4-0.4c-0.5,0-1,0.1-1.4,0.4c-0.4,0.3-0.6,0.6-0.6,1.1H177.5z"/>
	</g>
</g>
</svg>
